<svg xmlns="http://www.w3.org/2000/svg" viewBox="0 0 400 300" width="406" height="306" class="illustration styles_illustrationTablet__1DWOa"><g id="_505_achievement_flatline" data-name="#505_achievement_flatline"><path d="M152,130.07a.59.59,0,0,1-.22,0L89,99.2a.5.5,0,1,1,.44-.89l62.79,30.81a.5.5,0,0,1,.23.67A.52.52,0,0,1,152,130.07Z" fill="#e6e7e8"></path><path d="M267,111.54s3-5.88,2.53-8.27-1.24-9.57-1.24-9.57L288,95.53l-6.34,22.87" fill="#fff"></path><path d="M281.64,118.92l-.14,0a.52.52,0,0,1-.36-.63L287.31,96l-18.44-1.71c.22,1.8.83,7,1.17,8.91.45,2.53-2.45,8.34-2.58,8.59a.52.52,0,0,1-.69.23.51.51,0,0,1-.23-.69c.8-1.6,2.81-6.13,2.49-8-.42-2.38-1.22-9.31-1.25-9.61a.52.52,0,0,1,.14-.42.53.53,0,0,1,.42-.15L288,95a.55.55,0,0,1,.38.22.51.51,0,0,1,.07.43l-6.33,22.88A.51.51,0,0,1,281.64,118.92Z" fill="#231f20"></path><path d="M129.18,140.34s.18-11.64,0-14.26,3.75-17.2,2.81-19.49-3.56-3.18-4.5-.48-2.63,8.7-2.63,8.7-10.32-6.36-12.39-2-4,12.47-1.82,14.54a8.29,8.29,0,0,0,4.82,2.18l-.56,14.77Z" fill="#fff"></path><path d="M114.91,144.85a.54.54,0,0,1-.32-.11.49.49,0,0,1-.19-.42l.54-14.29a8.89,8.89,0,0,1-4.64-2.26c-2.62-2.46-.14-11.21,1.7-15.14a3,3,0,0,1,2-1.65c3.19-1,8.76,2,10.59,3,.46-1.63,1.7-5.93,2.45-8.09a2.62,2.62,0,0,1,2.32-2,3.6,3.6,0,0,1,3.15,2.46c.56,1.38-.23,5.65-1.52,12a53,53,0,0,0-1.26,7.63c.19,2.62,0,13.83,0,14.31a.5.5,0,0,1-.37.49l-14.27,4A.34.34,0,0,1,114.91,144.85Zm.5-33a4.16,4.16,0,0,0-1.15.15,2,2,0,0,0-1.32,1.11c-2,4.35-3.86,12.13-1.94,13.94a7.76,7.76,0,0,0,4.5,2,.52.52,0,0,1,.49.54l-.54,14.06,13.22-3.7c0-2,.16-11.53,0-13.84a49.7,49.7,0,0,1,1.28-7.91c.87-4.32,2.06-10.23,1.58-11.42a2.63,2.63,0,0,0-2.17-1.82c-.77,0-1.17.73-1.37,1.32-.93,2.65-2.61,8.61-2.62,8.67a.53.53,0,0,1-.31.34.5.5,0,0,1-.46,0C124.53,115.21,119,111.81,115.41,111.81Zm13.77,28.53h0Z" fill="#231f20"></path><polygon points="168.98 210.25 155.05 263.42 189.91 261.12 197.63 234.87 209.8 260.14 241.03 260.14 221.97 187.6 168.98 210.25" fill="#231f20"></polygon><path d="M218.48,203.36,166.8,213l12.85-76.33s26.31-5.28,32.67-5.28C217.68,131.35,218.48,203.36,218.48,203.36Z" fill="#fff"></path><path d="M166.8,213.46a.5.5,0,0,1-.35-.14.52.52,0,0,1-.15-.44l12.85-76.34a.51.51,0,0,1,.4-.4c1.07-.22,26.43-5.29,32.77-5.29h0c1.14,0,3.82.06,5.58,36.48.86,17.8,1.07,35.84,1.08,36a.51.51,0,0,1-.41.5l-51.69,9.6Zm13.28-76.41-12.67,75.29,50.57-9.4c-.46-39.9-2.94-71.09-5.66-71.09C206.47,131.85,183.17,136.43,180.08,137.05Z" fill="#231f20"></path><path d="M188.4,131.35c-.77.5,1.48,11.61,1.61,12.61a265.82,265.82,0,0,1,1.64,30.35,89.67,89.67,0,0,1-6.55,33c-1.91,4.85-4.13,9.59-6.46,14.25s-6.91,5.46-11.79,5.11a70,70,0,0,1-15.39-2.87,9.21,9.21,0,0,1-4.71-2.62c-2-2.55.18-6,1.32-8.44,1.62-3.47,3.17-7,4.62-10.52,2.31-5.69,8.54-19.33,10.13-25.26,2.07-7.71-1-7.73-.64-15.7.15-3.22.19-6.44.32-9.66.07-1.93-.51-8,.75-9.46C172.88,131.05,188.4,131.35,188.4,131.35Z" fill="#1FE079"></path><path d="M227,129.57c.32.06-1.25,25.92-1.14,27.21.83,9.81,15.2,48.39,15.2,48.39,0,3.55-35.83,24.8-38.12,18.43,10.62-56,3.3-92.23,3.05-92.25C206,131.35,218.75,128,227,129.57Z" fill="#1FE079"></path><path d="M200.74,145l-3.93,3.82,3.18,2.2s-3.35,24.92-15.13,28.46-16.36,2.32-16.36,2.32L162,190.25s10.1,2.89,10.82,3.13,22.12-4.75,25.49-18a137.73,137.73,0,0,0,3.94-23.84l2.13-2.68Z" fill="#231f20"></path><path d="M186,169.71a.51.51,0,0,1-.4-.2L175.62,156a.49.49,0,0,1,0-.64l6.21-6.42-7.79-2a.48.48,0,0,1-.35-.34.5.5,0,0,1,.12-.48l9.11-9.77a.5.5,0,0,1,.73.69l-8.54,9.15,7.81,2a.51.51,0,0,1,.35.35.49.49,0,0,1-.12.48l-6.52,6.73,9.71,13.21a.5.5,0,0,1-.11.69A.47.47,0,0,1,186,169.71Z" fill="#231f20"></path><path d="M211,168.25a.71.71,0,0,1-.2,0,.51.51,0,0,1-.26-.66l7.33-17.1-7.52-3.77a.55.55,0,0,1-.25-.31.51.51,0,0,1,.05-.4l5.62-9.13-7.38-3.41a.52.52,0,0,1-.25-.67.5.5,0,0,1,.67-.24l7.89,3.65a.49.49,0,0,1,.27.31.53.53,0,0,1-.05.41L211.26,146l7.45,3.74a.5.5,0,0,1,.24.64l-7.52,17.53A.51.51,0,0,1,211,168.25Z" fill="#231f20"></path><polygon points="272.91 36.58 284.84 60.75 311.51 64.63 292.21 83.44 296.77 110.01 272.91 97.47 249.05 110.01 253.61 83.44 234.31 64.63 260.98 60.75 272.91 36.58" fill="#fff"></polygon><path d="M296.77,110.51a.46.46,0,0,1-.23-.06L272.91,98l-23.63,12.42a.47.47,0,0,1-.52,0,.49.49,0,0,1-.2-.49l4.51-26.3L234,65a.49.49,0,0,1-.13-.51.51.51,0,0,1,.4-.34l26.42-3.84,11.81-23.93a.52.52,0,0,1,.9,0l11.81,23.93,26.42,3.84a.51.51,0,0,1,.4.34.49.49,0,0,1-.13.51L292.75,83.62l4.51,26.3a.49.49,0,0,1-.2.49A.45.45,0,0,1,296.77,110.51ZM272.91,97a.46.46,0,0,1,.23,0l23,12.08-4.39-25.57a.53.53,0,0,1,.14-.45L310.44,65l-25.67-3.73a.52.52,0,0,1-.38-.28L272.91,37.71,261.43,61a.52.52,0,0,1-.38.28L235.38,65,254,83.08a.53.53,0,0,1,.14.45l-4.39,25.57,23-12.08A.46.46,0,0,1,272.91,97Z" fill="#231f20"></path><path d="M227,129.57s18.75,6.3,23.56,4.89S265.1,110,265.1,110l19.71,2.45s-8.22,48.76-23.86,51.38-36.43-4.35-36.43-4.35Z" fill="#1FE079"></path><path d="M181.38,111.54c-.8-3.62-1.88-7.2-2.2-10.89s.18-7.6,2.27-10.65c2.25-3.28,5.12-2.9,8.58-3.35,4.59-.6,8.69-2.9,12.95-4.56.81-.32,2.07-.39,2.22.47a1.44,1.44,0,0,1-.15.78,13.62,13.62,0,0,1-2.27,3.74,33.54,33.54,0,0,0,9.48-3.74,11.07,11.07,0,0,1-2.45,9.28l5.63-2.82a9.49,9.49,0,0,1-7.1,10.87" fill="#fff"></path><path d="M181.38,112.05a.5.5,0,0,1-.5-.4c-.21-.94-.44-1.88-.67-2.83a54.65,54.65,0,0,1-1.54-8.12c-.27-3.06-.08-7.44,2.36-11,2-2.9,4.52-3.14,7.21-3.38l1.73-.18a35.43,35.43,0,0,0,9.37-3.09c1.13-.49,2.29-1,3.45-1.44a2.87,2.87,0,0,1,2.28,0,1.23,1.23,0,0,1,.64.89,1.84,1.84,0,0,1-.18,1.06,14.18,14.18,0,0,1-1.44,2.69A33.08,33.08,0,0,0,212,82.9a.49.49,0,0,1,.47,0,.52.52,0,0,1,.29.37,11.57,11.57,0,0,1-1.34,8l3.78-1.89a.53.53,0,0,1,.46,0,.51.51,0,0,1,.28.36,10,10,0,0,1-7.5,11.48.51.51,0,0,1-.61-.4.53.53,0,0,1,.41-.61,8.61,8.61,0,0,0,5.37-3.8A8.77,8.77,0,0,0,215,90.57l-5,2.51a.52.52,0,0,1-.62-.8,10.59,10.59,0,0,0,2.45-8.12,33.93,33.93,0,0,1-9,3.42.52.52,0,0,1-.51-.84,13,13,0,0,0,2.2-3.59,1.14,1.14,0,0,0,.11-.5.21.21,0,0,0-.12-.17,2,2,0,0,0-1.4.09c-1.14.44-2.3,1-3.41,1.43a36.61,36.61,0,0,1-9.66,3.16c-.61.08-1.2.13-1.77.19-2.64.24-4.73.43-6.45,2.94-2.26,3.3-2.44,7.43-2.19,10.32a55.2,55.2,0,0,0,1.52,8c.23,1,.46,1.9.68,2.85a.52.52,0,0,1-.4.61Z" fill="#231f20"></path><path d="M206,127l1.19,7.76s-1.22,11.29-9.75,9.31-11.93-9.67-11.93-9.67l-1.09-20.5s6.29-3.43,4.3-17.12a42.16,42.16,0,0,0,22.15,2.87s3,14.1,2.08,20.7A7.29,7.29,0,0,1,206,127Z" fill="#fff"></path><path d="M199.33,144.85a9.28,9.28,0,0,1-2-.24,18.77,18.77,0,0,1-12.28-10,.39.39,0,0,1,0-.18L183.88,114a.5.5,0,0,1,.27-.48c.06,0,5.93-3.48,4-16.59a.54.54,0,0,1,.21-.49.49.49,0,0,1,.53-.05,42.08,42.08,0,0,0,21.86,2.82.52.52,0,0,1,.57.41c.12.57,3.05,14.26,2.08,20.88a7.79,7.79,0,0,1-6.87,7l1.11,7.21a.66.66,0,0,1,0,.14c0,.24-.71,6.14-4.42,8.77A6.62,6.62,0,0,1,199.33,144.85ZM186,134.3c.39.82,3.83,7.51,11.53,9.3a6.12,6.12,0,0,0,5.14-.82c3.14-2.22,3.9-7.35,4-8l-1.18-7.69a.5.5,0,0,1,.12-.41.46.46,0,0,1,.38-.18,6.75,6.75,0,0,0,6.45-6.21c.84-5.77-1.46-17.57-2-20a44.09,44.09,0,0,1-21.11-2.61c1.43,11.67-3.18,15.7-4.4,16.55Z" fill="#231f20"></path><path d="M201.59,107.94s4,7.43,2.83,8.55-4.28,0-4.28,0" fill="#fff"></path><path d="M202.72,117.49A8.9,8.9,0,0,1,200,117a.5.5,0,1,1,.33-.94c.72.26,3,.82,3.77.08.49-.45-.91-4.23-2.93-7.94a.5.5,0,0,1,.2-.68.5.5,0,0,1,.68.2c1.28,2.34,4.09,7.91,2.72,9.16A3,3,0,0,1,202.72,117.49Z" fill="#231f20"></path><ellipse cx="194.31" cy="106.62" rx="0.84" ry="1.92" transform="translate(-4.31 8.26) rotate(-2.41)" fill="#231f20"></ellipse><ellipse cx="207.7" cy="106.62" rx="0.84" ry="1.92" transform="translate(-4.3 8.82) rotate(-2.41)" fill="#231f20"></ellipse><path d="M189.87,110.4a11.86,11.86,0,0,0-2.94-3.33,4,4,0,0,0-2.18-1,3.56,3.56,0,0,0-1.88.56,6.9,6.9,0,0,0-3.28,4.6,5.49,5.49,0,0,0,.1,2.67,6.09,6.09,0,0,0,2.66,3.2,18.36,18.36,0,0,0,3.88,1.68" fill="#fff"></path><path d="M186.23,119.33l-.17,0a18.51,18.51,0,0,1-4-1.74,6.55,6.55,0,0,1-2.87-3.47,6,6,0,0,1-.12-2.93,7.5,7.5,0,0,1,3.54-5,4,4,0,0,1,2.15-.63,4.54,4.54,0,0,1,2.48,1.07,12.42,12.42,0,0,1,3.06,3.48.52.52,0,0,1-.18.71.52.52,0,0,1-.71-.19,11.07,11.07,0,0,0-2.8-3.18,3.55,3.55,0,0,0-1.89-.85,3.05,3.05,0,0,0-1.6.48,6.44,6.44,0,0,0-3,4.26,5.15,5.15,0,0,0,.09,2.42,5.56,5.56,0,0,0,2.44,2.91,17.62,17.62,0,0,0,3.78,1.63.51.51,0,0,1,.32.65A.5.5,0,0,1,186.23,119.33Z" fill="#231f20"></path><path d="M206,127a23.32,23.32,0,0,1-14.32-2.36s7.3,11.22,15.44,9.64Z" fill="#231f20"></path><path d="M205.48,135c-7.64,0-14-9.58-14.25-10a.51.51,0,0,1,.05-.61.49.49,0,0,1,.6-.11,23,23,0,0,0,14,2.31.54.54,0,0,1,.39.08.51.51,0,0,1,.21.34l1.12,7.27a.49.49,0,0,1-.39.57A9.15,9.15,0,0,1,205.48,135Zm-12.29-9c2.25,2.87,7.61,8.72,13.33,8l-1-6.29A23.76,23.76,0,0,1,193.19,125.93Z" fill="#231f20"></path><path d="M195.14,113.37a6.78,6.78,0,1,1,6.78-6.78A6.79,6.79,0,0,1,195.14,113.37Zm0-12.53a5.75,5.75,0,1,0,5.75,5.75A5.76,5.76,0,0,0,195.14,100.84Z" fill="#231f20"></path><path d="M208.66,113.37a6.78,6.78,0,1,1,6.78-6.78A6.79,6.79,0,0,1,208.66,113.37Zm0-12.53a5.75,5.75,0,1,0,5.75,5.75A5.76,5.76,0,0,0,208.66,100.84Z" fill="#231f20"></path><path d="M201.63,121.63h0c-3.16,0-6.21-1.92-9.08-5.65a.5.5,0,1,1,.79-.6c2.67,3.46,5.46,5.23,8.29,5.25h0c3.91,0,6.62-3.38,6.65-3.41a.5.5,0,0,1,.79.61C208.93,118,206,121.63,201.63,121.63Z" fill="#231f20"></path><path d="M166.8,138.74c-3.55,3.41-29.84,30-31.81,25.1s-3.37-27.39-3.37-27.39l-18,2.67s-10.38,50.64,7.67,56.22,45.51-21,45.51-21Z" fill="#1FE079"></path><path d="M152,204.33a.47.47,0,0,1-.25-.07.49.49,0,0,1-.18-.68c.11-.2,11.63-20.76,15.37-53.42a.52.52,0,0,1,.56-.44.5.5,0,0,1,.44.55c-3.77,32.88-15.39,53.6-15.51,53.81A.5.5,0,0,1,152,204.33Z" fill="#231f20"></path><path d="M257.1,164.35c-13.45,0-38.47-5.63-38.72-5.69a.5.5,0,0,1-.38-.6.48.48,0,0,1,.6-.37c.25.05,25.16,5.66,38.49,5.66h1a.51.51,0,0,1,.51.49.5.5,0,0,1-.49.51Z" fill="#231f20"></path><path d="M121.09,112.85s3.16,3.37,1.61,9.28-4.16,7-8.59,4.37" fill="#fff"></path><path d="M118,128.38a8.35,8.35,0,0,1-4.16-1.44.51.51,0,1,1,.53-.88c2,1.21,3.54,1.56,4.7,1.09,1.34-.54,2.36-2.22,3.12-5.15,1.45-5.54-1.37-8.66-1.49-8.79a.52.52,0,0,1,0-.73.5.5,0,0,1,.72,0c.14.15,3.34,3.65,1.74,9.76-.87,3.31-2,5.17-3.73,5.85A3.91,3.91,0,0,1,118,128.38Z" fill="#231f20"></path><path d="M269.53,103.27s-5.77-9.71-4.36-10.7,4.69,2.79,6.5,5.35c0,0,5.55,1,4.62,7.18" fill="#fff"></path><path d="M276.29,105.62h-.08a.52.52,0,0,1-.43-.59c.85-5.62-4-6.56-4.2-6.59a.53.53,0,0,1-.33-.21c-2.38-3.37-5-5.76-5.78-5.23-.37.67,1.69,5.27,4.51,10a.52.52,0,0,1-.18.7.51.51,0,0,1-.71-.18c-2.74-4.62-5.7-10.34-4.21-11.38,2-1.42,5.81,3.5,7.1,5.31,1.07.28,5.71,1.84,4.82,7.72A.52.52,0,0,1,276.29,105.62Z" fill="#231f20"></path><path d="M92.62,251.68a.5.5,0,0,1-.32-.88l49-40.93a.5.5,0,0,1,.64.77l-49,40.93A.5.5,0,0,1,92.62,251.68Z" fill="#e6e7e8"></path><path d="M318.05,234.36a.49.49,0,0,1-.3-.1l-75.08-56.9a.5.5,0,1,1,.6-.79l75.08,56.89a.5.5,0,0,1,.1.7A.51.51,0,0,1,318.05,234.36Z" fill="#e6e7e8"></path><path d="M159.75,108.44a.5.5,0,0,1-.37-.17L122.75,67.32a.51.51,0,0,1,0-.71.5.5,0,0,1,.71,0l36.62,40.95a.5.5,0,0,1,0,.71A.51.51,0,0,1,159.75,108.44Z" fill="#e6e7e8"></path><path d="M284.83,139.39a.5.5,0,0,1-.18-1l38.66-15.08a.5.5,0,0,1,.37.93L285,139.35A.39.39,0,0,1,284.83,139.39Z" fill="#e6e7e8"></path><path d="M224.52,104.94a.44.44,0,0,1-.22,0,.5.5,0,0,1-.23-.67l13.79-27.88a.5.5,0,0,1,.9.44L225,104.67A.51.51,0,0,1,224.52,104.94Z" fill="#e6e7e8"></path><path d="M318.05,172.65H318l-45.14-5.88a.5.5,0,1,1,.12-1l45.15,5.88a.5.5,0,0,1,.43.56A.51.51,0,0,1,318.05,172.65Z" fill="#e6e7e8"></path><path d="M234.31,121.63a.48.48,0,0,1-.39-.19.49.49,0,0,1,.07-.7l6.73-5.45a.5.5,0,0,1,.7.08.5.5,0,0,1-.07.7l-6.73,5.45A.51.51,0,0,1,234.31,121.63Z" fill="#e6e7e8"></path><path d="M277.49,251.68a.49.49,0,0,1-.43-.24l-25.89-43.8a.5.5,0,0,1,.18-.68.51.51,0,0,1,.69.17l25.88,43.8a.49.49,0,0,1-.18.68A.45.45,0,0,1,277.49,251.68Z" fill="#e6e7e8"></path><path d="M135.41,254.17a.46.46,0,0,1-.23-.06.5.5,0,0,1-.21-.67l10.51-19.82a.5.5,0,0,1,.68-.2.49.49,0,0,1,.2.67l-10.5,19.82A.52.52,0,0,1,135.41,254.17Z" fill="#e6e7e8"></path><path d="M76.5,191.76a.49.49,0,0,1-.48-.38.5.5,0,0,1,.37-.6l32.23-7.33a.5.5,0,1,1,.22,1l-32.23,7.32Z" fill="#e6e7e8"></path><path d="M179.09,73.79a.49.49,0,0,1-.48-.36L171,46.85a.51.51,0,0,1,.35-.62.49.49,0,0,1,.61.34l7.64,26.59a.49.49,0,0,1-.34.61A.34.34,0,0,1,179.09,73.79Z" fill="#e6e7e8"></path><path d="M213.11,65.23H213a.5.5,0,0,1-.38-.6L218,41a.5.5,0,1,1,1,.22L213.6,64.84A.51.51,0,0,1,213.11,65.23Z" fill="#e6e7e8"></path><path d="M105.94,142.57H86.05a.5.5,0,0,1-.5-.5.5.5,0,0,1,.5-.5h19.89a.5.5,0,0,1,.5.5A.5.5,0,0,1,105.94,142.57Z" fill="#e6e7e8"></path></g></svg>