<svg id="Layer_1" data-name="Layer 1" xmlns="http://www.w3.org/2000/svg" viewBox="0 0 400 300" width="406" height="306" class="illustration styles_illustrationTablet__1DWOa"><title>_</title><ellipse cx="200" cy="254.02" rx="111.64" ry="9.11" fill="#e6e6e6" opacity="0.45"></ellipse><rect x="249.64" y="141.04" width="5.03" height="78.22" fill="#e6e6e6"></rect><path d="M190.25,144.57a12.22,12.22,0,0,1,1-4.17c.91-2,5.47-4,6.14-2.43s-.27,3.72-1,5.39a20.59,20.59,0,0,0-.89,5.41Z" fill="#f4a28c"></path><path d="M168.91,135s11.38,30.17,15.42,28.75,5.36-19.91,5.36-19.91l6.67,2.42s.52,33.25-12.63,33S156.53,154,156.53,154Z" fill="#1FE079"></path><path d="M168.91,135s11.38,30.17,15.42,28.75,5.36-19.91,5.36-19.91l6.67,2.42s.52,33.25-12.63,33S156.53,154,156.53,154Z" fill="#fff" opacity="0.46"></path><path d="M121,244.91s-1,3.11-3.6,3.35-3.25,3-.93,3.7,8.28-2.53,8.28-2.53l-.17-4.05Z" fill="#1FE079"></path><path d="M156.37,244.91s1,3.11,3.6,3.35,3.24,3,.93,3.7-8.28-2.53-8.28-2.53l.17-4.05Z" fill="#1FE079"></path><path d="M130.5,185.11l-10,60.36h5l12.58-32.77a55.48,55.48,0,0,1,22.33-27.47l3.69-2.29Z" fill="#24285b"></path><path d="M164.09,182.94l-5.19,62.53h-6.67s1.56-47.05-10.47-57.06Z" fill="#24285b"></path><path d="M142.21,105.43a29.71,29.71,0,0,1,.54,7.88,2.4,2.4,0,0,1-2.69,2.06,5.3,5.3,0,0,1-4.57-3.46l-1.9-4a4.27,4.27,0,0,1,1.33-4.75C137.36,101,141.76,102.56,142.21,105.43Z" fill="#f4a28c"></path><polygon points="133.94 108.67 133.32 124.25 141.93 123.97 138.92 112.75 133.94 108.67" fill="#f4a28c"></polygon><path d="M141.06,105.76a18.62,18.62,0,0,1-4.4.19,4,4,0,0,1,.52,4.32,3.24,3.24,0,0,1-3.73,1.74l-.64-6.08a4.85,4.85,0,0,1,1.93-4.58,16.86,16.86,0,0,1,1.91-1.23c1.66-.91,4.36-.05,5.79-1.41a1.14,1.14,0,0,1,1.89.53c.5,1.81.51,4.76-1.87,6.06A4.27,4.27,0,0,1,141.06,105.76Z" fill="#24285b"></path><path d="M137.67,110.07s-.26-1.82-1.61-1.51-1,2.92.89,3Z" fill="#f4a28c"></path><path d="M142.66,108.4l1.54,1.66a.76.76,0,0,1-.34,1.24l-1.76.56Z" fill="#f4a28c"></path><path d="M139.68,115.18a5.73,5.73,0,0,1-3-1.32s.46,2.81,3.9,5.24Z" fill="#ce8172" opacity="0.31"></path><path d="M164.08,183.52l-14.48,1.07L130.51,186h0c-.41-.59-16.73-24.13-16.4-42.11.18-9.49,5-17.42,19.22-19.64l5.85-.19a35.82,35.82,0,0,0,4.27-.37c4.52-.69,18.1-1.52,25.47,11.31C177.85,150.56,164.08,183.52,164.08,183.52Z" fill="#1FE079"></path><path d="M149.93,184.75,130.51,186h0c-.41-.59-16.73-24.13-16.4-42.11,11-5.1,28.76-6.82,28.76-6.82s3.62,3.73-.68,8.88c-5.3,6.34-7.17,15-4,22.64,2,4.92,5,12.73,11.43,16A2.49,2.49,0,0,0,149.93,184.75Z" opacity="0.08"></path><path d="M141.34,130.86a13.43,13.43,0,0,0-15.27-4.47C116,130,98.61,138.56,96.74,155.55c-2.64,24.15,36,29.45,36,29.45l1.24-6.15s-40-22.36-1.24-33.61C132.7,145.24,148.19,140.12,141.34,130.86Z" fill="#1FE079"></path><path d="M141.34,130.86a13.43,13.43,0,0,0-15.27-4.47C116,130,98.61,138.56,96.74,155.55c-2.64,24.15,36,29.45,36,29.45l1.24-6.15s-40-22.36-1.24-33.61C132.7,145.24,148.19,140.12,141.34,130.86Z" fill="#fff" opacity="0.46"></path><path d="M134,179.74s6.61.13,5.45,4.26-6.75,1-6.75,1Z" fill="#f4a28c"></path><path d="M225.26,143.93l-.47-2.68a1.15,1.15,0,0,0-2.27.29l-9.15.89.29-2.63-12-2.65-.65,1.78a6.89,6.89,0,0,0-1.91-1.62c-1.32-.77-3-1.21-4.39-.29a4,4,0,0,0-1.81,4.23,8,8,0,0,0,1.06,2.06,8.16,8.16,0,0,0,1.45,1.7,7.43,7.43,0,0,0,2.82,1.51l-1,2.67,15,3.35.39-3.46,10.49-4.41a1.15,1.15,0,0,0,1.21.59A1.16,1.16,0,0,0,225.26,143.93Zm-28.19-.11a7,7,0,0,1-2-2.43,1.87,1.87,0,0,1-.36-1.27,2.51,2.51,0,0,1,.77-1.23,1.29,1.29,0,0,1,1.05-.4,3.46,3.46,0,0,1,1.38.49,5.13,5.13,0,0,1,2.17,2.27l-1.24,3.38A5.4,5.4,0,0,1,197.07,143.82Z" fill="#ffd200"></path><path d="M231.3,145.7a15.27,15.27,0,0,0-2.71-1.95.43.43,0,0,0-.58.21.44.44,0,0,0,.21.57,15.06,15.06,0,0,1,2.52,1.84.44.44,0,0,0,.56-.67Z" fill="#e6e6e6"></path><path d="M235.32,149.94a7.5,7.5,0,0,0-2-2.44.44.44,0,0,0-.56.67,6.17,6.17,0,0,1,.54.48l.12.11,0,.05,0,0,.24.28a5.89,5.89,0,0,1,.41.57,3.21,3.21,0,0,1,.19.31l0,.06,0,.05,0,0,0,.09a.43.43,0,0,0,.81-.31Z" fill="#e6e6e6"></path><path d="M237.62,154.37a9.9,9.9,0,0,0-1.31-2.67.43.43,0,0,0-.7.5c.13.2.26.39.37.59a1.4,1.4,0,0,1,.1.16l0,.07,0,0,0,.06,0,.08c0,.05,0,.11.08.16a9.27,9.27,0,0,1,.52,1.32.44.44,0,0,0,.56.25A.45.45,0,0,0,237.62,154.37Z" fill="#e6e6e6"></path><path d="M232.07,143a12.14,12.14,0,0,0-3-1,.44.44,0,0,0-.15.86,10.68,10.68,0,0,1,2.77.89.44.44,0,1,0,.37-.79Z" fill="#e6e6e6"></path><path d="M238.43,147.69a12.31,12.31,0,0,0-2.6-2.34.44.44,0,0,0-.61.06.43.43,0,0,0,.06.61,11.78,11.78,0,0,1,2.44,2.17.44.44,0,0,0,.61.1A.43.43,0,0,0,238.43,147.69Z" fill="#e6e6e6"></path><path d="M242.1,153.55a6.31,6.31,0,0,0-1.66-2.91.44.44,0,1,0-.56.67l.07.07,0,0,.12.13.24.29c.15.21.29.43.42.65l0,0a.22.22,0,0,1,0,.05l.09.18.15.35a5,5,0,0,1,.24.75.43.43,0,0,0,.56.25A.44.44,0,0,0,242.1,153.55Z" fill="#e6e6e6"></path><path d="M238.59,158.86a3.67,3.67,0,0,0-.35-1.43.45.45,0,0,0-.23-.24.42.42,0,0,0-.33,0,.45.45,0,0,0-.24.23.38.38,0,0,0,0,.33,4.26,4.26,0,0,1,.22.63,3.81,3.81,0,0,1,.08.59.39.39,0,0,0,.15.28.41.41,0,0,0,.32.1A.43.43,0,0,0,238.59,158.86Z" fill="#e6e6e6"></path><path d="M230.15,149.08A9.36,9.36,0,0,0,227.3,146a.45.45,0,0,0-.61.06.43.43,0,0,0,.06.61,8.87,8.87,0,0,1,2.7,3,.42.42,0,0,0,.6.1A.43.43,0,0,0,230.15,149.08Z" fill="#e6e6e6"></path><path d="M233.26,154.53a8.54,8.54,0,0,0-1.2-2.87.43.43,0,0,0-.71.5,3.21,3.21,0,0,1,.19.31l.09.14,0,.08,0,0s0,0,0,0a1,1,0,0,0,0,.1l.08.15c0,.11.1.22.14.33s.17.43.24.65a3,3,0,0,1,.1.32c0,.06,0,.12.05.18h0a.36.36,0,0,1,0,.1.46.46,0,0,0,.48.39A.44.44,0,0,0,233.26,154.53Z" fill="#e6e6e6"></path><path d="M233.59,160.76l0-2.24a.43.43,0,1,0-.86.09c0,.74,0,1.49,0,2.24a.43.43,0,0,0,.48.38A.45.45,0,0,0,233.59,160.76Z" fill="#e6e6e6"></path><polygon points="222.12 209.38 282.19 209.38 277.69 252.06 226.63 252.06 222.12 209.38" fill="#c9c9c9"></polygon><path d="M298.16,157.13a40.34,40.34,0,0,1-20.26,17.26c-14,5.29-23.73-.73-23.73-.73s3.33-10.9,17.38-16.18A40.31,40.31,0,0,1,298.16,157.13Z" fill="#e6e6e6"></path><path d="M298.16,157.13a40.34,40.34,0,0,1-20.26,17.26c-14,5.29-23.73-.73-23.73-.73Z" opacity="0.05"></path><path d="M206.14,173.72A40.33,40.33,0,0,0,226.39,191c14.05,5.28,23.73-.74,23.73-.74s-3.32-10.9-17.37-16.18A40.31,40.31,0,0,0,206.14,173.72Z" fill="#e6e6e6"></path><path d="M206.14,173.72A40.33,40.33,0,0,0,226.39,191c14.05,5.28,23.73-.74,23.73-.74Z" opacity="0.05"></path><ellipse cx="253.07" cy="140.81" rx="14.87" ry="6.01" fill="#c9c9c9"></ellipse><circle cx="253.07" cy="77.17" r="40.3" fill="#ffd200"></circle><rect x="236.65" y="114.59" width="32.84" height="26.22" fill="#24285b"></rect><polygon points="235.71 74.29 270.43 74.29 259.62 117.47 246.51 117.47 235.71 74.29" fill="none" stroke="#24285b" stroke-miterlimit="10"></polygon></svg>