<svg id="_240_share_flatline" data-name="#240_share_flatline" xmlns="http://www.w3.org/2000/svg" viewBox="0 0 400 300" width="406" height="306" class="illustration styles_illustrationTablet__1DWOa"><path d="M301.76,48a12.94,12.94,0,0,0-4.72.64c-2.25,1-4.44,6.27-6,14.54a101.13,101.13,0,0,0-1.75,21.74,4.08,4.08,0,0,0,1.8,3.25c7,5,30.75-1.11,33.27-1.78,1.2-2.3,12.14-23.83,6.75-29.62C326.37,51.64,310.47,48,301.76,48Z" fill="#fff"></path><path d="M300.42,91.11c-4.11,0-7.75-.57-9.93-2.15a5.06,5.06,0,0,1-2.23-4c-.59-11.28,2.54-34.78,8.37-37.28s29,1.7,35.24,8.38-6.17,30-6.7,31a.52.52,0,0,1-.32.26C324.08,87.5,310.75,91.11,300.42,91.11ZM301.76,48a12.94,12.94,0,0,0-4.72.64c-2.25,1-4.44,6.27-6,14.54a101.13,101.13,0,0,0-1.75,21.74,4.08,4.08,0,0,0,1.8,3.25c7,5,30.75-1.11,33.27-1.78,1.2-2.3,12.14-23.83,6.75-29.62C326.37,51.64,310.47,48,301.76,48Zm23,38.83h0Z" fill="#231f20"></path><path d="M234.61,221.17A49.52,49.52,0,0,0,264,179.72l-16.55-17.78-22.75,43.93" fill="#fff"></path><path d="M234.61,221.69a.52.52,0,0,1-.18-1,49.39,49.39,0,0,0,29.05-40.79l-15.9-17.08L225.17,206.1a.52.52,0,0,1-.92-.47L247,161.7a.5.5,0,0,1,.39-.27.51.51,0,0,1,.45.15l16.55,17.79a.53.53,0,0,1,.14.4,50.43,50.43,0,0,1-29.74,41.88A.39.39,0,0,1,234.61,221.69Z" fill="#231f20"></path><polygon points="285.91 248.33 335.97 247.36 335.28 184.32 261.77 186.97 251.54 248.33 285.91 248.33" fill="#231f20"></polygon><path d="M285.91,248.83H251.54a.49.49,0,0,1-.38-.18.46.46,0,0,1-.11-.4l10.23-61.36a.49.49,0,0,1,.47-.42l73.51-2.65a.55.55,0,0,1,.36.14.48.48,0,0,1,.16.36l.69,63a.5.5,0,0,1-.49.51l-50.06,1Zm-33.78-1h33.78l49.56-1-.68-62-72.6,2.62Z" fill="#231f20"></path><path d="M345.62,114.38c-4.48-6.09-15.2-9.3-22.42-10.45-6.95-1.1-13.91,0-20.89-.6a61.42,61.42,0,0,0-19,1.86c-23.29,6.44-44.94,40.16-44.94,40.16l23.74,1.25s-3.45,24.83-13.35,79.24C290,227.31,338,231.41,338,231.41s.21-11.39.73-22.6c3.72-3.47,3.59-9,4.27-12.21.88-4.13-.9-49-.9-49l5.41-2S347.58,117,345.62,114.38Z" fill="#1FE079"></path><polygon points="290.15 113.75 272.06 232.74 293.66 234.91 318.23 113.5 290.15 113.75" fill="#231f20"></polygon><path d="M293.66,235.41h-.05L272,233.24a.53.53,0,0,1-.35-.19.48.48,0,0,1-.09-.38l18.09-119a.5.5,0,0,1,.49-.42l28.07-.25a.48.48,0,0,1,.39.18.5.5,0,0,1,.11.42L294.15,235A.5.5,0,0,1,293.66,235.41Zm-21-3.11,20.63,2.07L317.61,114l-27,.24Z" fill="#231f20"></path><path d="M293.36,98.83l-3.11,14.92s3.31,9.91,13.34,8.86a20.07,20.07,0,0,0,14.64-9.11l3.56-27.42s-6.69-4.81-2.47-20.16a48.63,48.63,0,0,1-25.71.12s-6.69,16.37-6.52,24S293.36,98.83,293.36,98.83Z" fill="#fff"></path><path d="M302.14,123.21c-9.16,0-12.34-9.2-12.38-9.3a.49.49,0,0,1,0-.27l3-14.43c-1.54-.48-6-2.44-6.18-9.1-.16-7.7,6.28-23.59,6.56-24.26a.52.52,0,0,1,.61-.31,48.56,48.56,0,0,0,25.41-.11.52.52,0,0,1,.52.11.51.51,0,0,1,.14.51c-4.07,14.84,2.22,19.57,2.28,19.61a.5.5,0,0,1,.21.49l-3.56,27.42a.49.49,0,0,1-.07.19,20.35,20.35,0,0,1-15,9.36A13,13,0,0,1,302.14,123.21Zm-11.35-9.5c.43,1.18,3.74,9.32,12.75,8.39a19.75,19.75,0,0,0,14.19-8.77l3.51-27c-1.2-1-6.05-6.28-2.66-19.63a50.54,50.54,0,0,1-24.66,0c-1,2.6-6.46,16.61-6.32,23.42.15,7.15,5.61,8.2,5.85,8.25a.49.49,0,0,1,.33.21.52.52,0,0,1,.08.4Z" fill="#231f20"></path><path d="M316.16,84.84a6.4,6.4,0,0,1,2.61-3.11,11.25,11.25,0,0,1,3.63-1.25,4.82,4.82,0,0,1,2.1-.1,4.12,4.12,0,0,1,1.31.69,5,5,0,0,1,2,2.77,5.94,5.94,0,0,1-.25,2.8,11.21,11.21,0,0,1-1.15,2.85,7.74,7.74,0,0,1-10.72,2.65" fill="#fff"></path><path d="M319.78,93.79a8.34,8.34,0,0,1-4.34-1.21.52.52,0,0,1-.17-.71.51.51,0,0,1,.71-.17,7.41,7.41,0,0,0,5.52.86A7.32,7.32,0,0,0,326,89.23a10.75,10.75,0,0,0,1.09-2.73,5.4,5.4,0,0,0,.24-2.54,4.51,4.51,0,0,0-1.81-2.47,3.47,3.47,0,0,0-1.14-.61,4.42,4.42,0,0,0-1.86.1A11.17,11.17,0,0,0,319,82.17a5.89,5.89,0,0,0-2.4,2.86.52.52,0,1,1-1-.38,7,7,0,0,1,2.82-3.36A11.81,11.81,0,0,1,322.3,80a5.11,5.11,0,0,1,2.33-.09,4.35,4.35,0,0,1,1.49.78,5.4,5.4,0,0,1,2.21,3.07,6.42,6.42,0,0,1-.25,3,12,12,0,0,1-1.2,3,8.38,8.38,0,0,1-5.13,3.81A8.22,8.22,0,0,1,319.78,93.79Z" fill="#231f20"></path><path d="M292.16,106.29a12.73,12.73,0,0,0,10.38-1.9c4.84-3.55,4.79-6,4.79-6s-7.41,2.86-13.61.73Z" fill="#231f20"></path><path d="M295.33,107.18a12.73,12.73,0,0,1-3.31-.41.49.49,0,0,1-.34-.58L293.24,99a.48.48,0,0,1,.24-.33.47.47,0,0,1,.4,0c5.95,2,13.2-.69,13.27-.72a.48.48,0,0,1,.45,0,.47.47,0,0,1,.22.4c0,.11,0,2.75-5,6.41A12.57,12.57,0,0,1,295.33,107.18Zm-2.58-1.26a12.26,12.26,0,0,0,9.5-1.93c2.95-2.17,4-3.89,4.37-4.83-2.1.67-7.57,2.08-12.53.6Z" fill="#231f20"></path><path d="M302.31,76.51s-6.35,6.69-5.37,8.21S301.43,86,301.43,86" fill="#fff"></path><path d="M300.69,86.47c-1.19,0-3.34-.19-4.17-1.48-1.08-1.66,3.43-6.73,5.42-8.82a.5.5,0,0,1,.71,0,.49.49,0,0,1,0,.7c-3.24,3.42-5.72,7-5.31,7.6.66,1,3.2,1.07,4,1a.5.5,0,0,1,.54.45.5.5,0,0,1-.46.54C301.38,86.45,301.08,86.47,300.69,86.47Z" fill="#231f20"></path><ellipse cx="310.92" cy="77.76" rx="1.79" ry="1.27" transform="translate(122.7 337.17) rotate(-68.08)" fill="#231f20"></ellipse><ellipse cx="297.74" cy="75.61" rx="1.79" ry="1.27" transform="translate(116.44 323.59) rotate(-68.08)" fill="#231f20"></ellipse><path d="M301.42,94.91a6.26,6.26,0,0,1-1.52-.19c-6.92-1.67-6.76-9.75-6.76-9.83a.51.51,0,0,1,.52-.48.49.49,0,0,1,.48.51c0,.3-.13,7.35,6,8.83s9.16-8.21,9.19-8.31a.5.5,0,1,1,.95.3C310.15,86.14,307.34,94.91,301.42,94.91Z" fill="#231f20"></path><path d="M82.85,118l37.38,41.89,52.3,18.29L165.85,192s-33.95-5.13-47.32-6.63-30.27-21.58-30.27-21.58Z" fill="#fff"></path><path d="M165.85,192.49h-.07c-.34,0-34.1-5.14-47.31-6.63-13.41-1.51-29.9-20.92-30.59-21.75a.45.45,0,0,1-.12-.26L82.35,118a.52.52,0,0,1,.29-.51.5.5,0,0,1,.58.12l37.3,41.79,52.18,18.25a.5.5,0,0,1,.29.28.49.49,0,0,1,0,.41L166.3,192.2A.49.49,0,0,1,165.85,192.49ZM88.74,163.57c1.39,1.62,17.34,19.88,29.84,21.29s43.27,6,47,6.58l6.28-13-51.77-18.11a.49.49,0,0,1-.21-.14L83.53,119.5Z" fill="#231f20"></path><path d="M101,97.23c-.52-3.51-1.93-6.82-3-10.19-2.7-8.17-3.09-16.6-5.92-24.74-3.63-10.47-10.6-18.09-22.79-17.66A12.43,12.43,0,0,0,57.82,52.3c-5.77-3.18-13.46,3.29-13.73,9.21-.4,8.73.16,16.18-3.64,24.45-2.88,6.28-7.34,12.16-7.71,19.06s3.54,13.35,9.14,17.16,12.66,5.08,19.41,4.58,13.28-2.66,19.55-5.24a50.51,50.51,0,0,0,8.84-4.46C96.05,112.8,102.22,105.35,101,97.23Z" fill="#fff"></path><path d="M58.51,127.36a30,30,0,0,1-16.91-4.77c-6-4.11-9.72-11-9.36-17.59.27-5.09,2.73-9.66,5.11-14.08.91-1.69,1.85-3.43,2.65-5.17C43.08,79,43.25,73,43.44,66c0-1.47.08-3,.15-4.51.16-3.44,2.73-7.22,6.27-9.2a8.38,8.38,0,0,1,7.73-.66,12.85,12.85,0,0,1,11.65-7.48c11-.36,19.06,5.83,23.29,18A91.4,91.4,0,0,1,95.62,74.9a94.06,94.06,0,0,0,2.83,12c.28.83.57,1.67.87,2.5a42.52,42.52,0,0,1,2.2,7.78h0c1.24,8.45-5.16,16-11.57,20.31A50.17,50.17,0,0,1,81,122c-5.27,2.17-12.26,4.73-19.7,5.28C60.38,127.33,59.44,127.36,58.51,127.36Zm-4-75.4a8.56,8.56,0,0,0-4.17,1.19c-3.25,1.82-5.62,5.27-5.76,8.38-.07,1.53-.11,3-.15,4.49-.19,6.81-.36,13.23-3.53,20.15-.81,1.76-1.76,3.52-2.68,5.22-2.32,4.32-4.73,8.8-5,13.66-.33,6.24,3.17,12.8,8.93,16.72,5.06,3.43,11.83,5,19.09,4.49s14.2-3.06,19.4-5.2a49.58,49.58,0,0,0,8.75-4.42c6.15-4.11,12.31-11.35,11.13-19.34h0a41.84,41.84,0,0,0-2.16-7.59c-.29-.83-.59-1.67-.87-2.52a95.51,95.51,0,0,1-2.87-12.1,88.07,88.07,0,0,0-3-12.62C87.46,50.59,80,44.76,69.28,45.14a11.94,11.94,0,0,0-11,7.37.5.5,0,0,1-.29.26.47.47,0,0,1-.4,0A6.3,6.3,0,0,0,54.52,52Z" fill="#231f20"></path><path d="M101.19,124.28c-.42-1.66-.87-3.3-1.37-4.93-1.32-4.37-2.89-10.71-6-14.18-5.07-5.62-16.48-5.8-23.41-5.84-10.73-.06-21.7,2.46-30.47,8.63-13.5,9.5-16,23.29-14.45,38.67,1.78,17.2,4,34.36,6.41,51.49.24,1.76,3.13,27.93,4.43,27.94.09,0,89,.07,86.16,2.17-4-13.89-7-28-10.22-42-.68-3-1.89-5.72-2.63-8.64-1.07-4.22-.58-8.85-1-13.17-.87-10-3-19.84-5.08-29.64C102.83,131.26,102.07,127.75,101.19,124.28Z" fill="#1FE079"></path><polygon points="126.39 248.66 116.2 203.94 33.9 210.72 32.85 248.66 126.39 248.66" fill="#231f20"></polygon><path d="M126.39,249.16H32.85a.51.51,0,0,1-.36-.15.52.52,0,0,1-.14-.36l1-37.94a.51.51,0,0,1,.46-.49l82.3-6.78a.53.53,0,0,1,.53.39l10.19,44.72a.52.52,0,0,1-.1.42A.51.51,0,0,1,126.39,249.16Zm-93-1h92.39l-10-43.68-81.42,6.7Z" fill="#231f20"></path><path d="M77.57,137a2.77,2.77,0,0,0,.86.2c1.87.14,3.34-1.6,4.11-3.31,1.72-3.81,1.72-8.15,1.42-12.31a19.3,19.3,0,0,0-1.55-7.14,16.16,16.16,0,0,0-3.64-4.63c-2.67-2.47-5.91-4.54-9.52-5s-8.89,1.5-10,5.46c-1.16,4.28,3.34,8.59,5.52,11.74a127.25,127.25,0,0,0,10.3,13A7.07,7.07,0,0,0,77.57,137Z" fill="#231f20"></path><path d="M78.65,137.7h-.26a4,4,0,0,1-1-.23h0a7.59,7.59,0,0,1-2.67-2.11,130.23,130.23,0,0,1-10.34-13c-.42-.61-.94-1.28-1.5-2-2.26-2.89-5.08-6.5-4.08-10.16,1.11-4.1,6.33-6.33,10.51-5.83,3.27.38,6.57,2.1,9.8,5.1a16.37,16.37,0,0,1,3.75,4.77,19.94,19.94,0,0,1,1.6,7.33c.29,4,.34,8.55-1.47,12.54C82.6,135,81.16,137.7,78.65,137.7Zm-.9-1.18a2.36,2.36,0,0,0,.72.17c1.57.14,2.92-1.48,3.61-3,1.71-3.79,1.66-8.22,1.38-12.06a19.23,19.23,0,0,0-1.5-7,15.37,15.37,0,0,0-3.53-4.48c-3.07-2.85-6.18-4.48-9.24-4.84-3.69-.43-8.47,1.55-9.43,5.1-.86,3.18,1.78,6.57,3.91,9.28.56.72,1.09,1.4,1.54,2a126.84,126.84,0,0,0,10.26,12.93A6.47,6.47,0,0,0,77.75,136.52Z" fill="#231f20"></path><rect x="120.75" y="57.31" width="140.58" height="150.08" fill="#fff"></rect><path d="M261.32,207.88H120.75a.5.5,0,0,1-.5-.5V57.31a.5.5,0,0,1,.5-.5H261.32a.5.5,0,0,1,.5.5V207.38A.5.5,0,0,1,261.32,207.88Zm-140.07-1H260.82V57.81H121.25Z" fill="#231f20"></path><rect x="129.82" y="68.85" width="122.42" height="110.17" fill="#fff"></rect><path d="M252.25,179.52H129.82a.5.5,0,0,1-.5-.5V68.85a.5.5,0,0,1,.5-.5H252.25a.5.5,0,0,1,.5.5V179A.5.5,0,0,1,252.25,179.52Zm-121.93-1H251.75V69.35H130.32Z" fill="#d1d3d4"></path><path d="M238.55,107.33c-1.76,1.94-3.44,4-5.28,5.81-4.81,4.9-9.69,9.73-14.54,14.59-.17.17-.3.4-.5.49-.87.38-2,1.22-2.58.93a3.41,3.41,0,0,1-1.32-2.55c-.14-3.75-.05-7.5-.05-11.51-1.58,0-3.07-.06-4.56,0-5.63.27-11.05,1.39-15.95,4.32A19.57,19.57,0,0,0,183.7,136a21.05,21.05,0,0,0,.89,5.5c.21.94.74,2-.44,2.37a2.58,2.58,0,0,1-2.19-1.2,51.32,51.32,0,0,1-3.64-9.45c-3.37-15.24,5-29.21,20.13-34a44.42,44.42,0,0,1,13.49-2.11h2.33c0-2.93,0-5.72,0-8.51a22.39,22.39,0,0,1,.27-4c.3-1.52,1.26-1.88,2.61-1.13a7.23,7.23,0,0,1,1.48,1.23q9.15,9.15,18.28,18.33a18.23,18.23,0,0,1,1.63,2.23Z" fill="#1FE079"></path><path d="M162.42,162.3a15.94,15.94,0,0,1-8.87-5A14.14,14.14,0,0,1,150.1,148c0-13.27-.08-26.53,0-39.8A14.13,14.13,0,0,1,164.31,94c2.47-.06,4.93-.06,7.4,0,2,0,3.26,1.19,3.24,2.93s-1.25,2.73-3.2,2.75c-2.41,0-4.81,0-7.22,0a8.5,8.5,0,0,0-8.77,8.61q-.06,20,0,40a8.46,8.46,0,0,0,8.56,8.46c13.15,0,35.82,0,49,0a8.46,8.46,0,0,0,8.83-8.71c.07-4.17,0-8.34,0-12.51,0-2,.86-3.06,2.49-3.28,1.36-.19,3,.75,3,2.11,0,5.57.41,11.2-.26,16.69-.74,6-5.4,10-11.41,11.13a4,4,0,0,0-.65.25Z" fill="#1FE079"></path><path d="M251.34,190.13H147.67a.5.5,0,0,1-.5-.5.5.5,0,0,1,.5-.5H251.34a.5.5,0,0,1,.5.5A.5.5,0,0,1,251.34,190.13Z" fill="#d1d3d4"></path><path d="M225.57,197.92h-77.9a.5.5,0,0,1-.5-.5.5.5,0,0,1,.5-.5h77.9a.5.5,0,0,1,.5.5A.51.51,0,0,1,225.57,197.92Z" fill="#d1d3d4"></path><circle cx="135.59" cy="191.65" r="5.76" fill="#fff"></circle><path d="M135.59,197.92a6.27,6.27,0,1,1,6.26-6.27A6.27,6.27,0,0,1,135.59,197.92Zm0-11.53a5.27,5.27,0,1,0,5.26,5.26A5.27,5.27,0,0,0,135.59,186.39Z" fill="#d1d3d4"></path><path d="M88,66.88S93,78.53,91.55,87.72a13.31,13.31,0,0,1-9.54,11l1,16.05s.61,8.2-9.53,7.59a17.32,17.32,0,0,1-14.16-9.07L56.31,83.88s11-7.3,9.29-17.83C65.6,66.05,79.57,71.72,88,66.88Z" fill="#fff"></path><path d="M74.58,122.91l-1.08,0a18,18,0,0,1-14.58-9.35.48.48,0,0,1-.05-.17L55.81,83.93a.51.51,0,0,1,.22-.47c.11-.07,10.68-7.25,9.08-17.33a.49.49,0,0,1,.18-.47.5.5,0,0,1,.5-.07c.13,0,13.84,5.52,21.94.85a.53.53,0,0,1,.41,0,.49.49,0,0,1,.3.28c.21.48,5.1,11.89,3.6,21.12a13.93,13.93,0,0,1-9.5,11.31l1,15.65a8,8,0,0,1-2.12,5.76C79.86,122.11,77.56,122.91,74.58,122.91Zm-14.72-9.74a16.94,16.94,0,0,0,13.7,8.71c3.21.19,5.62-.5,7.15-2.06a7.07,7.07,0,0,0,1.85-5l-1-16a.5.5,0,0,1,.39-.52,12.75,12.75,0,0,0,9.16-10.62c1.27-7.87-2.4-17.73-3.33-20.06-7.46,3.87-18.48.35-21.53-.77.93,9.38-7.76,16.15-9.36,17.31Z" fill="#231f20"></path><path d="M61.73,81.44S56,70.62,50.92,78s3.52,14.56,8.43,13.57" fill="#fff"></path><path d="M58.37,92.18c-2.81,0-6.17-2-8-4.83a8.16,8.16,0,0,1,.19-9.62c1.35-2,2.89-2.9,4.58-2.79,3.87.23,7,6,7.08,6.27a.5.5,0,0,1-.88.46S58.34,76.14,55,75.94q-2-.12-3.69,2.36a7.22,7.22,0,0,0-.18,8.5c1.89,2.88,5.53,4.81,8.1,4.29a.51.51,0,0,1,.59.4.49.49,0,0,1-.39.58A5.49,5.49,0,0,1,58.37,92.18Z" fill="#231f20"></path><path d="M83.8,87.65a13.09,13.09,0,0,1-2.43-.23.48.48,0,0,1-.39-.58.5.5,0,0,1,.59-.4s3.24.63,4.77-.3c.22-1.25-2.86-5.44-5.1-8a.49.49,0,0,1,.05-.7.51.51,0,0,1,.71,0c1,1.1,5.69,6.72,5.36,8.78a1.1,1.1,0,0,1-.51.78A6.1,6.1,0,0,1,83.8,87.65Z" fill="#231f20"></path><path d="M82,98.74s-8.5,1.64-13.5.71c0,0,6.19,12.28,14.34,11.68Z" fill="#231f20"></path><path d="M82.26,111.66c-8.06,0-14-11.49-14.2-12a.49.49,0,0,1,0-.53A.5.5,0,0,1,68.6,99c4.85.91,13.23-.68,13.32-.7a.53.53,0,0,1,.4.1.52.52,0,0,1,.19.36l.84,12.39a.5.5,0,0,1-.46.53Q82.58,111.66,82.26,111.66ZM69.43,100.09C71,102.76,76,110.66,82.27,110.66h0l-.77-11.32C79.71,99.66,73.76,100.6,69.43,100.09Z" fill="#231f20"></path><ellipse cx="76.39" cy="76.24" rx="1.26" ry="2.21" transform="translate(-8.54 9.65) rotate(-6.85)" fill="#231f20"></ellipse><ellipse cx="87.36" cy="75.84" rx="1.26" ry="2.21" transform="translate(-8.42 10.96) rotate(-6.85)" fill="#231f20"></ellipse><path d="M78.74,92.46A5.24,5.24,0,0,1,76.63,92c-2.44-1.06-4-4-4.65-8.81a.5.5,0,1,1,1-.14c.6,4.41,2,7.11,4.06,8,2.53,1.12,5.38-.83,5.41-.85a.5.5,0,1,1,.57.82A8.3,8.3,0,0,1,78.74,92.46Z" fill="#231f20"></path><path d="M213.09,207.9a31.69,31.69,0,0,1-.32-3.34,18.51,18.51,0,0,1,1.07-6.83,4.87,4.87,0,0,1,1.53-2.51,2,2,0,0,1,2.68.19,3.19,3.19,0,0,1,.1,2.56,20.79,20.79,0,0,0-.35,7.08c.38-3.18.8-6.48,2.53-9.16a4.29,4.29,0,0,1,1.49-1.53,2,2,0,0,1,2.05,0c.89.65.82,2,.71,3.06a36.41,36.41,0,0,0,.13,8.41,24,24,0,0,1,.53-7.32c.36-1.57,1.07-3.3,2.6-3.8a1.84,1.84,0,0,1,1-.06,2,2,0,0,1,1.33,1.57,6.81,6.81,0,0,1,0,2.16,31.89,31.89,0,0,0,.26,8.45,20.26,20.26,0,0,1,.27-7.36,5.75,5.75,0,0,1,1.12-2.66,2.35,2.35,0,0,1,2.62-.77,2.45,2.45,0,0,1,1.27,1.77,9.47,9.47,0,0,1,.08,2.26,20.47,20.47,0,0,0,1.55,8.32c.9,2.19,2.07,4.62,1.86,7.07a7.11,7.11,0,0,1-4.62,5.67,13.46,13.46,0,0,1-7.58.36c-8.27-1.64-15.1-5.58-18-13.49" fill="#fff"></path><path d="M230.5,222.41a18.35,18.35,0,0,1-3.57-.37c-9.52-1.89-15.71-6.54-18.41-13.82a.52.52,0,0,1,1-.36c2.56,6.92,8.5,11.35,17.64,13.16a12.86,12.86,0,0,0,7.29-.33,6.6,6.6,0,0,0,4.29-5.23c.18-2.07-.69-4.14-1.53-6.13l-.29-.71a21.2,21.2,0,0,1-1.59-8.53v-.35a7,7,0,0,0-.07-1.78,2,2,0,0,0-1-1.41,1.88,1.88,0,0,0-2,.63,5.3,5.3,0,0,0-1,2.44,19.44,19.44,0,0,0-.27,7.17.52.52,0,0,1-.43.59A.51.51,0,0,1,230,207a32.11,32.11,0,0,1-.26-8.59l0-.17a5.9,5.9,0,0,0,0-1.83,1.5,1.5,0,0,0-1-1.18,1.41,1.41,0,0,0-.75.05c-1.05.34-1.81,1.5-2.26,3.42a23.3,23.3,0,0,0-.51,7.16.52.52,0,0,1-1,.11,36.87,36.87,0,0,1-.13-8.53c.1-1,.15-2.1-.5-2.58a1.47,1.47,0,0,0-1.5,0,3.73,3.73,0,0,0-1.31,1.34c-1.7,2.64-2.09,6-2.44,9a.52.52,0,0,1-.51.45h0a.52.52,0,0,1-.51-.45,21.28,21.28,0,0,1,.35-7.25,2.75,2.75,0,0,0,0-2.14,1,1,0,0,0-.69-.4,1.72,1.72,0,0,0-1.26.31,4.4,4.4,0,0,0-1.35,2.26,17.62,17.62,0,0,0-1.05,6.63c0,.35.05.66.07.95a19.24,19.24,0,0,0,.25,2.35.52.52,0,0,1-1,.17,20.12,20.12,0,0,1-.26-2.45c0-.29,0-.6-.07-.94a18.67,18.67,0,0,1,1.1-7,5.39,5.39,0,0,1,1.71-2.77,2.8,2.8,0,0,1,2-.5,2.07,2.07,0,0,1,1.37.81,3.61,3.61,0,0,1,.19,3,.94.94,0,0,0,0,.16,12.93,12.93,0,0,1,1.27-2.62,4.79,4.79,0,0,1,1.69-1.7,2.45,2.45,0,0,1,2.59.07c1,.76,1,2.16,1,3.13a4.31,4.31,0,0,1,2.55-2.85,2.32,2.32,0,0,1,1.32-.07,2.51,2.51,0,0,1,1.72,2,5,5,0,0,1,.08,1.39,4.39,4.39,0,0,1,.66-1,2.83,2.83,0,0,1,3.22-.9,3,3,0,0,1,1.56,2.13,8.22,8.22,0,0,1,.11,2l0,.35a20.39,20.39,0,0,0,1.51,8.11l.29.7c.85,2,1.81,4.29,1.61,6.62a7.55,7.55,0,0,1-4.94,6.1A11.48,11.48,0,0,1,230.5,222.41Z" fill="#231f20"></path><path d="M317.71,152.06,316.19,175s-47-37-54.87-38.59v6.47s-13.07-1.6-14.11,1,.73,12.48,4.13,14.48c2,1.21,18.89,1.31,18.89,1.31s2.39,5.86,25.69,27.33,45.22,32.95,46.59,12.84,3.11-54,3.11-54" fill="#fff"></path><path d="M333.89,210.75c-8.27,0-21.89-8.26-38.32-23.4-20.49-18.89-24.86-25.72-25.66-27.19-2.79,0-16.83-.2-18.83-1.38-3.74-2.21-5.47-12.33-4.35-15.12s10.92-1.76,14.08-1.41v-5.89a.53.53,0,0,1,.19-.4.55.55,0,0,1,.43-.11c7.43,1.5,48,33.12,54.31,38.09L317.19,152a.52.52,0,1,1,1,.07L316.71,175a.49.49,0,0,1-.31.43.51.51,0,0,1-.53-.06c-.45-.36-44.78-35.21-54-38.32v5.79a.52.52,0,0,1-.17.39.51.51,0,0,1-.41.13c-5.26-.65-13-.86-13.57.69-.95,2.37.78,12,3.91,13.85,1.41.83,11.91,1.19,18.63,1.24a.51.51,0,0,1,.48.32c0,.05,2.77,6.13,25.56,27.14C315,203.81,329.8,212,337,209.19c3-1.19,4.67-4.36,5-9.41,1.35-19.87,3.09-53.67,3.11-54a.51.51,0,0,1,.54-.49.51.51,0,0,1,.49.54c0,.34-1.76,34.15-3.11,54-.38,5.48-2.28,9-5.67,10.29A9.25,9.25,0,0,1,333.89,210.75Z" fill="#231f20"></path><line x1="316.19" y1="174.95" x2="327.46" y2="183.35" fill="#fff"></line><path d="M327.46,183.87a.63.63,0,0,1-.31-.1l-11.27-8.4a.53.53,0,0,1-.1-.73.52.52,0,0,1,.72-.1l11.27,8.4a.52.52,0,0,1-.31.93Z" fill="#231f20"></path><path d="M55.54,133.54s19.28,35.8,19.8,37.2c.18.47,39.73-20.71,41.18-23.6a20.27,20.27,0,0,1,.93-9.65c.64-1.69,1.82-1.9,3.22-3.09a48,48,0,0,0-.12,6.35,74.3,74.3,0,0,1,8.58-7.76,2.77,2.77,0,0,1,2.52-.82,2.45,2.45,0,0,1,1,.93c4.1,5.77.68,12.7-2.26,18.1-5.54,10.16-13.84,16.47-22.66,23.57a218.94,218.94,0,0,1-18.31,13.15,91.37,91.37,0,0,1-15.55,8.45c-3.26,1.3-7.76,3-11.22,1.38-12.55-5.82-26.94-35.56-30.87-48.65" fill="#fff"></path><path d="M65.92,198.91a8.1,8.1,0,0,1-3.44-.71c-7.11-3.29-14.2-13.67-18.89-21.8a143.55,143.55,0,0,1-12.24-27.15.5.5,0,0,1,.95-.29c4,13.46,18.5,42.73,30.6,48.34,3.14,1.45,7.24,0,10.83-1.39a91.36,91.36,0,0,0,15.45-8.41,218.86,218.86,0,0,0,18.28-13.12l1.52-1.23c8.15-6.53,15.84-12.7,21-22.19,3.11-5.7,6.1-12.22,2.29-17.57a1.94,1.94,0,0,0-.81-.75c-.63-.25-1.42.27-2,.74a76,76,0,0,0-8.52,7.71.5.5,0,0,1-.86-.3c-.08-.92-.07-3.6,0-5.32l-.35.24a3.8,3.8,0,0,0-1.8,2,20,20,0,0,0-.91,9.38.48.48,0,0,1,0,.31c-.84,1.68-11.87,8.06-21,13.11-5.2,2.89-19.71,10.78-20.66,10.78h0a.54.54,0,0,1-.46-.33c-.4-1.08-13.11-24.77-19.77-37.14a.5.5,0,0,1,.88-.48c.75,1.4,17.57,32.65,19.63,36.84C80,168.44,113.86,149.82,116,147a20.56,20.56,0,0,1,1-9.71,4.77,4.77,0,0,1,2.18-2.44,12.45,12.45,0,0,0,1.19-.86.5.5,0,0,1,.57-.06.51.51,0,0,1,.25.51,45.83,45.83,0,0,0-.17,5.08,75.93,75.93,0,0,1,7.82-7c.82-.63,1.91-1.31,3-.89a3,3,0,0,1,1.27,1.11c4.48,6.3.28,14-2.23,18.63-5.26,9.66-13,15.89-21.26,22.49l-1.53,1.23a216.66,216.66,0,0,1-18.35,13.18,92.3,92.3,0,0,1-15.63,8.5A23.39,23.39,0,0,1,65.92,198.91Z" fill="#231f20"></path><path d="M55.54,134a.5.5,0,0,1-.43-.25l-9.68-16.51a.5.5,0,1,1,.87-.51L56,133.29a.49.49,0,0,1-.18.68A.45.45,0,0,1,55.54,134Z" fill="#231f20"></path><path d="M317.71,152.58h0a.51.51,0,0,1-.46-.56l2.13-23.21a.52.52,0,0,1,.56-.46.5.5,0,0,1,.47.56l-2.14,23.2A.51.51,0,0,1,317.71,152.58Z" fill="#231f20"></path></svg>