<svg xmlns="http://www.w3.org/2000/svg" viewBox="0 0 400 300" width="406" height="306" class="illustration styles_illustrationTablet__1DWOa"><g id="_223_social_media_flatline" data-name="#223_social_media_flatline"><polygon points="159.79 253.53 156.96 274.39 263.34 274.39 257.03 241.85 159.79 253.53" fill="#231f20"></polygon><path d="M263.34,274.89H157a.5.5,0,0,1-.49-.57l2.83-20.85a.49.49,0,0,1,.43-.43L257,241.36a.5.5,0,0,1,.55.4l6.31,32.54a.51.51,0,0,1-.1.41A.53.53,0,0,1,263.34,274.89Zm-105.8-1H262.73l-6.1-31.49L160.24,254Z" fill="#231f20"></path><path d="M208.29,64.78s-7.31-7.88-15.46-9.4-34.49,8-37.06,18.35S157.52,99,157.52,99,196,63,208.29,64.78Z" fill="#231f20"></path><path d="M157.52,99.47h-.13a.51.51,0,0,1-.35-.35c-.18-.61-4.32-15.12-1.75-25.5,2.64-10.67,29.18-20.31,37.63-18.73,8.22,1.54,15.44,9.24,15.74,9.56a.54.54,0,0,1,.08.58.52.52,0,0,1-.52.26c-11.91-1.71-50,33.7-50.36,34.06A.48.48,0,0,1,157.52,99.47Zm33.27-43.76c-9.59,0-32.23,8.85-34.53,18.14-2.17,8.77.7,21,1.53,24.19,5-4.57,36.54-33.25,49.24-33.81-2.17-2.08-8-7.19-14.29-8.36A10.39,10.39,0,0,0,190.79,55.71Z" fill="#231f20"></path><ellipse cx="188.49" cy="85.94" rx="41.56" ry="15.78" transform="translate(-18.61 90.61) rotate(-25.8)" fill="#fff"></ellipse><path d="M163.28,109.44c-6.57,0-11-1.8-12.65-5.2-1.93-4,.26-9.64,6.19-15.9s14.54-12.21,24.59-17.06,20.22-7.94,28.64-8.68c8.59-.75,14.38,1,16.31,5s-.27,9.65-6.19,15.91-14.54,12.2-24.59,17.06-20.22,7.94-28.64,8.68C165.66,109.39,164.44,109.44,163.28,109.44Zm50.48-46c-1.14,0-2.35.06-3.62.17-8.31.73-18.36,3.77-28.3,8.58S163.27,83,157.54,89s-7.75,11.19-6,14.79,7.18,5.19,15.32,4.47c8.31-.73,18.36-3.77,28.3-8.58s18.57-10.79,24.3-16.85,7.75-11.18,6-14.78h0C224,65,219.89,63.43,213.76,63.43Z" fill="#231f20"></path><polygon points="174.64 131.34 112.27 138.5 97.2 178.34 177.82 181.05 174.64 131.34" fill="#1FE079"></polygon><polygon points="238.66 130.46 301.23 158.72 306.25 201.95 232.48 178.28 238.66 130.46" fill="#1FE079"></polygon><path d="M193.58,132.57c-5.52.54-25.62,2.38-30.77,4.69-17.49,7.85-3.66,120.34-6,120.66.59-.08,104.67-10,104.67-10-4.08-39.54,3.71-68.57-18.43-113.07C236.77,122.21,207.43,131.19,193.58,132.57Z" fill="#1FE079"></path><path d="M190.41,139.28s3.3,27.54,18.14,24S216.32,135,216.32,135Z" fill="#231f20"></path><path d="M206,164.1a9.9,9.9,0,0,1-5.8-1.87c-8.13-5.66-10.2-22.19-10.28-22.89a.5.5,0,0,1,.41-.55l25.92-4.29a.47.47,0,0,1,.56.35c.18.61,4.21,15-.73,23.48a11.3,11.3,0,0,1-7.4,5.44A11.49,11.49,0,0,1,206,164.1Zm-15-24.41c.4,2.77,2.77,16.83,9.79,21.72a9.17,9.17,0,0,0,7.67,1.39,10.32,10.32,0,0,0,6.78-5c4.26-7.29,1.38-19.8.75-22.27Z" fill="#231f20"></path><line x1="238.98" y1="142.18" x2="249.63" y2="180.73" fill="#fff"></line><path d="M249.63,181.23a.51.51,0,0,1-.49-.36L238.5,142.32a.5.5,0,1,1,1-.27l10.64,38.55a.49.49,0,0,1-.35.61A.3.3,0,0,1,249.63,181.23Z" fill="#231f20"></path><line x1="156.96" y1="153.58" x2="162.62" y2="190.05" fill="#fff"></line><path d="M162.62,190.55a.5.5,0,0,1-.49-.42l-5.66-36.47a.49.49,0,0,1,.42-.57.5.5,0,0,1,.57.41L163.11,190a.49.49,0,0,1-.41.57Z" fill="#231f20"></path><path d="M234.68,107.38c-1.41-3.76-4.76-6.38-7.62-9.21-6.49-6.4-9.34-14.5-14.07-22a28.6,28.6,0,0,0-5.53-6.39c-6.33,1.29-14.12,3.1-20.16,5.77-19.08,8.43-24.48,18.56-24.63,18.7.77,10.28,3.74,26.92,7,36.68,1.52,4.65,3.36,10.88,8.65,12.57,1.51.48-.6-1.08.92-1.51,5.19-1.46,10.77-2.8,15.62-5.18,4.54-2.23,8-5.89,12.4-8.24,2.94-1.57,6-1.73,9.12-2,.64,0,1.28-.1,1.92-.17,4.82-.5,9.65-2.24,13.05-5.68S236.38,111.92,234.68,107.38Z" fill="#fff"></path><path d="M178.69,144.06a1.85,1.85,0,0,1-.57-.12c-5.33-1.7-7.25-7.58-8.79-12.32l-.19-.56c-3.38-10.3-6.25-27.12-7-36.8a.49.49,0,0,1,.15-.4v0c1.58-2.53,8-11.36,24.77-18.76,6.3-2.78,14.58-4.64,20.26-5.8a.52.52,0,0,1,.43.11,29.21,29.21,0,0,1,5.63,6.5c1.54,2.46,2.89,5,4.21,7.46,2.8,5.25,5.45,10.21,9.78,14.49.52.51,1.06,1,1.6,1.53,2.43,2.3,5,4.67,6.14,7.86h0c1.67,4.47.27,10-3.49,13.85-4,4.08-9.48,5.42-13.35,5.83-.65.07-1.3.12-1.94.17l-.46,0c-3,.22-5.76.43-8.47,1.88a45.65,45.65,0,0,0-5.73,3.87,43.23,43.23,0,0,1-6.68,4.38,75.35,75.35,0,0,1-13.23,4.53l-2.47.68a.46.46,0,0,0-.22.1,1.15,1.15,0,0,0,.11.4.82.82,0,0,1,0,.92A.66.66,0,0,1,178.69,144.06Zm-.34-.58h0ZM163.18,94.35c.74,9.65,3.58,26.23,6.91,36.4l.19.56c1.44,4.43,3.24,9.92,7.87,11.59a1.18,1.18,0,0,1,.06-.8,1.26,1.26,0,0,1,.85-.62l2.48-.69a74.07,74.07,0,0,0,13.05-4.46,42.13,42.13,0,0,0,6.52-4.28,46.92,46.92,0,0,1,5.86-4c2.89-1.55,5.79-1.77,8.86-2l.46,0c.64,0,1.27-.1,1.91-.16,3.71-.4,8.93-1.67,12.74-5.54,3.5-3.55,4.81-8.69,3.27-12.8h0c-1.11-3-3.54-5.26-5.88-7.48-.55-.52-1.09-1-1.62-1.55-4.44-4.38-7.25-9.64-10-14.73-1.3-2.45-2.65-5-4.17-7.4a28,28,0,0,0-5.25-6.11c-5.63,1.15-13.69,3-19.82,5.69-16.48,7.28-22.78,15.9-24.32,18.37Z" fill="#231f20"></path><path d="M209.74,82.08s8.34,11.31,9,21.6a14.75,14.75,0,0,1-7.55,14.26L216.32,135s2.7,8.7-8.39,10.55a19.13,19.13,0,0,1-17.52-6.26l-10.62-31s10-10.6,5.6-21.54C185.39,86.75,201.87,89.4,209.74,82.08Z" fill="#fff"></path><path d="M204.7,146.32A20,20,0,0,1,190,139.59a.53.53,0,0,1-.08-.15l-10.61-31a.49.49,0,0,1,.11-.5c.1-.11,9.74-10.5,5.49-21a.5.5,0,0,1,.08-.5.49.49,0,0,1,.47-.18c.16,0,16.33,2.52,23.93-4.55a.54.54,0,0,1,.39-.13.52.52,0,0,1,.35.2c.35.47,8.44,11.55,9.12,21.87a15.38,15.38,0,0,1-7.45,14.53l5,16.67a8.74,8.74,0,0,1-.85,6.7c-1.44,2.34-4.11,3.85-7.94,4.49A20.35,20.35,0,0,1,204.7,146.32ZM190.85,139a18.79,18.79,0,0,0,17,6c3.52-.59,6-1.94,7.24-4a8,8,0,0,0,.76-5.9l-5.12-17.06a.5.5,0,0,1,.26-.59,14.1,14.1,0,0,0,7.27-13.77c-.58-8.89-7.08-18.7-8.6-20.89-7.13,6.1-20.06,5-23.51,4.53,3.41,9.94-4.4,19.46-5.79,21Z" fill="#231f20"></path><path d="M185,104.31s-8.82-10.25-12.52-1,7.42,14.83,12.47,12.55" fill="#fff"></path><path d="M182.33,116.87a12.29,12.29,0,0,1-8.1-3.39,9,9,0,0,1-2.17-10.36c1-2.43,2.38-3.81,4.2-4.12,4.21-.7,9,4.75,9.16,5a.51.51,0,0,1-.06.71.49.49,0,0,1-.7,0c0-.06-4.58-5.25-8.23-4.65-1.45.24-2.61,1.42-3.44,3.5a8,8,0,0,0,1.93,9.27c2.77,2.65,7.19,3.83,9.86,2.63a.5.5,0,0,1,.66.25.49.49,0,0,1-.25.66A7,7,0,0,1,182.33,116.87Z" fill="#231f20"></path><path d="M202.83,105.45a.5.5,0,0,1-.5-.48.51.51,0,0,1,.49-.52s3.67-.13,5.11-1.52a.17.17,0,0,0,0-.14c-.1-1.41-4.67-5.26-7.54-7.36a.51.51,0,0,1-.11-.7.5.5,0,0,1,.7-.11c1.3.95,7.79,5.82,8,8.1a1.12,1.12,0,0,1-.34.92c-1.71,1.67-5.61,1.8-5.77,1.81Z" fill="#231f20"></path><path d="M211.21,117.94s-8.76,3.88-14.39,4.11c0,0,9.74,11.72,18.37,9Z" fill="#231f20"></path><path d="M212.5,132c-8,0-15.7-9.19-16.07-9.63a.49.49,0,0,1-.07-.52.52.52,0,0,1,.44-.3c5.47-.22,14.12-4,14.21-4.07a.53.53,0,0,1,.41,0,.49.49,0,0,1,.27.31l4,13.15a.51.51,0,0,1-.33.63A9.58,9.58,0,0,1,212.5,132Zm-14.63-9.52c2.25,2.43,9.85,9.94,16.7,8.27l-3.67-12.13C209,119.41,202.71,122,197.87,122.48Z" fill="#231f20"></path><ellipse cx="194" cy="97.46" rx="1.39" ry="2.45" transform="translate(-21.55 71.53) rotate(-19.82)" fill="#231f20"></ellipse><path d="M167.77,124.74c2.63,10.13,7.86,28.66,22.12,18.94a14,14,0,0,0,5.78-8.74c1.28-6.42-9.49-11.53-14.51-13.78" fill="#fff"></path><path d="M182.44,146.91a8.53,8.53,0,0,1-3-.54c-7.26-2.72-10.44-14.94-12.15-21.51a.5.5,0,0,1,1-.25c1.54,5.94,4.76,18.28,11.53,20.82,2.84,1.07,6.15.34,9.83-2.17a13.47,13.47,0,0,0,5.57-8.42c1.25-6.28-10.4-11.51-14.23-13.22a.51.51,0,0,1-.25-.66.5.5,0,0,1,.66-.26c7,3.12,16.06,8,14.8,14.34a14.47,14.47,0,0,1-6,9.05A13.94,13.94,0,0,1,182.44,146.91Z" fill="#231f20"></path><path d="M203.37,115.4a12,12,0,0,1-2.22-.21c-7.27-1.34-6.8-7.09-6.79-7.14a.49.49,0,0,1,.49-.45h0l15.85,0a.49.49,0,0,1,.36.15.5.5,0,0,1,.14.35,7.58,7.58,0,0,1-2.67,5.55A8,8,0,0,1,203.37,115.4Zm-8-6.8c.06,1.24.72,4.64,6,5.61a7.84,7.84,0,0,0,6.57-1.29,6.61,6.61,0,0,0,2.28-4.28Z" fill="#231f20"></path><path d="M204.91,95a.45.45,0,0,1-.16,0,.5.5,0,0,1-.31-.63,5.89,5.89,0,0,1,2.83-3.25,4.33,4.33,0,0,1,3.61.15.5.5,0,0,1-.4.91,3.41,3.41,0,0,0-2.81-.15,5,5,0,0,0-2.29,2.67A.5.5,0,0,1,204.91,95Z" fill="#231f20"></path><path d="M108.28,177.85c-11.36,7.24-25.55-6.62-19.43-24.65s49-61.26,49-61.26-3.6-10.19-.36-14S147,76.2,147,76.2s3.7-16.45,7-15.25-2.17,17-2.17,17,8.78-17.41,11-14.06-6.53,16.28-6.53,16.28,5.28-.68,2.05,6.81a24.5,24.5,0,0,1-9.84,11S119.63,170.62,108.28,177.85Z" fill="#fff"></path><path d="M101.8,180.32a12.88,12.88,0,0,1-8-2.91C88.43,173.18,84.65,164,88.38,153c5.92-17.46,45.25-57.51,48.93-61.23-.59-1.77-3.28-10.55-.17-14.22,2.89-3.42,7.85-2.46,9.48-2,.65-2.76,3.3-13.39,6.18-15a1.62,1.62,0,0,1,1.35-.13c2.45.89,1.1,7.59-.3,12.59,2.47-4.37,6-10,8.14-10.11a1.32,1.32,0,0,1,1.22.65c2.07,3.15-4.07,13.07-6,16.09a3,3,0,0,1,2,1.12c1,1.28.81,3.42-.47,6.36a24.74,24.74,0,0,1-10,11.22c-2.39,6.61-29.37,72.95-40.24,79.88h0A12.51,12.51,0,0,1,101.8,180.32Zm41.37-104.2a6.67,6.67,0,0,0-5.27,2.11c-3,3.57.41,13.44.45,13.54a.5.5,0,0,1-.12.52c-.42.43-42.89,43.36-48.91,61.07-3.56,10.5,0,19.25,5.11,23.26a11.36,11.36,0,0,0,13.58.81h0c11-7,39.73-78.89,40-79.59a.49.49,0,0,1,.23-.28,24.19,24.19,0,0,0,9.62-10.77c1.1-2.56,1.3-4.41.58-5.37a2.48,2.48,0,0,0-2.1-.75.5.5,0,0,1-.49-.24.48.48,0,0,1,0-.54c2.38-3.52,8.18-13.21,6.53-15.73-.13-.2-.25-.21-.33-.2-2,.11-7.05,8.78-9.79,14.22a.5.5,0,0,1-.64.23.48.48,0,0,1-.28-.62c3.65-10.58,3.64-16,2.47-16.37a.6.6,0,0,0-.53.07c-2.31,1.26-5,11.12-5.8,14.82a.5.5,0,0,1-.25.32.47.47,0,0,1-.4,0A12.9,12.9,0,0,0,143.17,76.12Z" fill="#231f20"></path><path d="M104.43,43.55l23.43,204.16,156.35-17.94L260.79,25.61ZM263.34,163.06,133.06,178,119.18,57l130.28-15Z" fill="#fff"></path><path d="M127.86,248.21a.47.47,0,0,1-.31-.11.49.49,0,0,1-.19-.33L103.94,43.61a.49.49,0,0,1,.43-.56L260.73,25.11a.51.51,0,0,1,.37.11.48.48,0,0,1,.18.33l23.43,204.17a.5.5,0,0,1-.44.55L127.91,248.21ZM105,44,128.3,247.16l155.36-17.83L260.35,26.16Zm28.07,134.52a.51.51,0,0,1-.5-.44l-13.88-121a.5.5,0,0,1,.44-.55l130.28-15a.45.45,0,0,1,.37.11A.49.49,0,0,1,250,42l13.88,121a.5.5,0,0,1-.44.55L133.12,178.51Zm-13.33-121,13.77,120,129.29-14.84L249,42.63Z" fill="#231f20"></path><path d="M146.81,187.14c.07-.14.13-.27.2-.39a5.18,5.18,0,0,1,1.92-2,4.5,4.5,0,0,1,2.09-.59,4.34,4.34,0,0,1,4.41,3.25,8.07,8.07,0,0,1,.2,1.77,7,7,0,0,1-.17,1.71,6.83,6.83,0,0,1-1.14,2.46,22.7,22.7,0,0,1-1.77,2.15l-3.26,3.6c-.31.35-.61.72-.92,1.08l-.06.07L148,200c-1.3-1-2.63-1.89-4-2.8-.87-.6-1.74-1.19-2.57-1.85a8.87,8.87,0,0,1-1.63-1.61,6.29,6.29,0,0,1-1.07-2.17,9.1,9.1,0,0,1-.31-1.78,4.29,4.29,0,0,1,2.43-4.26,4.48,4.48,0,0,1,4.91.59,5.17,5.17,0,0,1,.93.94S146.78,187.11,146.81,187.14Z" fill="#1FE079"></path><path d="M178.34,197.21a.52.52,0,0,1-.21,0l-3.1-1.42a10.15,10.15,0,0,1-3.24.94,9.52,9.52,0,0,1-6.44-1.49,6.93,6.93,0,0,1-1.24-10.79A9.9,9.9,0,0,1,176.49,183a7.16,7.16,0,0,1,3.22,5.1,7,7,0,0,1-1.3,4.84l.42,3.72a.51.51,0,0,1-.2.47A.52.52,0,0,1,178.34,197.21ZM175,194.69a.46.46,0,0,1,.2.05l2.52,1.15-.35-3a.5.5,0,0,1,.1-.35,6,6,0,0,0,1.22-4.3,6.16,6.16,0,0,0-2.78-4.38,8.88,8.88,0,0,0-11.09,1.28,5.93,5.93,0,0,0,1.07,9.27,8.55,8.55,0,0,0,5.76,1.32,8.89,8.89,0,0,0,3.12-.94A.46.46,0,0,1,175,194.69Z" fill="#d1d3d4"></path><path d="M194.69,194.52h0a.5.5,0,0,1-.46-.36l-1.85-6.09L185,185.29a.5.5,0,0,1-.32-.48.48.48,0,0,1,.33-.46l15.34-5.5a.53.53,0,0,1,.53.13.51.51,0,0,1,.1.53l-5.87,14.7A.49.49,0,0,1,194.69,194.52Zm-8-9.69,6.29,2.39a.5.5,0,0,1,.3.32l1.5,5,4.93-12.34Z" fill="#d1d3d4"></path><path d="M192.77,188.19a.49.49,0,0,1-.34-.14.5.5,0,0,1,0-.71l7.79-8.36a.5.5,0,0,1,.73.69L193.13,188A.5.5,0,0,1,192.77,188.19Z" fill="#d1d3d4"></path><path d="M141,212.32a.51.51,0,0,1-.5-.44.51.51,0,0,1,.44-.56l126.28-14.48a.5.5,0,1,1,.11,1L141.05,212.32Z" fill="#d1d3d4"></path><path d="M142.31,223.81a.5.5,0,0,1-.49-.44.5.5,0,0,1,.44-.56l107.42-12.32a.5.5,0,0,1,.11,1L142.37,223.81Z" fill="#d1d3d4"></path><path d="M289.45,190.53c-10.46-25.25-15-60.32-15-60.32s-17.8-3.58-19.13-15.18,14.9-7.28,14.9-7.28A46.63,46.63,0,0,0,269,97.08c2.37.4,37.48,47.06,43.35,85C315,199.56,299.9,215.79,289.45,190.53Z" fill="#fff"></path><path d="M301.86,204.07c-4.7,0-9.31-4.72-12.87-13.34h0c-9.81-23.69-14.48-56.37-15-60.11a40.29,40.29,0,0,1-8.85-3.21c-6.2-3.14-9.77-7.41-10.34-12.33-.33-2.89.37-5.11,2.07-6.58,3.62-3.13,10.66-1.87,12.83-1.39a45.85,45.85,0,0,0-1.23-9.9.51.51,0,0,1,.11-.46.53.53,0,0,1,.46-.16c2.42.41,37.81,47,43.75,85.4,1.55,10-2.57,20-9,21.81A7.15,7.15,0,0,1,301.86,204.07Zm-11.95-13.73c3.84,9.29,8.81,13.84,13.62,12.49,5.87-1.64,9.73-11.31,8.28-20.69-5.44-35.2-35.91-77.24-42-83.73a48.58,48.58,0,0,1,.92,9.34.51.51,0,0,1-.63.48c-.09,0-8.73-2.27-12.55,1-1.44,1.24-2,3.16-1.72,5.71,1.27,11.11,18.56,14.71,18.73,14.74a.52.52,0,0,1,.4.43c0,.35,4.66,35.3,15,60.2Z" fill="#231f20"></path><path d="M144,90.48h-.07a.51.51,0,0,1-.42-.58,5.34,5.34,0,0,1,2.32-3.83,6.85,6.85,0,0,1,3-1,17.17,17.17,0,0,1-3.54-2.46c-.7-.63-.94-1.23-.7-1.77.86-2,9.22-1.39,11.76-1.17a.5.5,0,0,1,.45.55.48.48,0,0,1-.54.45c-5.48-.49-10.41-.23-10.75.57,0,0,0,.24.45.62a14.28,14.28,0,0,0,5.84,3.29c.62.09,1,.2,1.08.21a.51.51,0,0,1,.37.57.5.5,0,0,1-.53.41,6.76,6.76,0,0,1-1.13-.21,8,8,0,0,0-5.23.78,4.37,4.37,0,0,0-1.87,3.15A.5.5,0,0,1,144,90.48Z" fill="#231f20"></path><path d="M239,70.07a.46.46,0,0,1-.33-.12l-.21-.21c-1-1-2-1.9-2.89-2.78l-.13-.11c-.6-.56-1.21-1.13-1.78-1.75a8.07,8.07,0,0,1-1.22-1.62,5.74,5.74,0,0,1-.66-2.1,7.85,7.85,0,0,1,0-1.6,4,4,0,0,1,2.88-3.63,4.18,4.18,0,0,1,4.46,1.22,3.62,3.62,0,0,1,.36.42,4.59,4.59,0,0,1,1.83-1.31,4.19,4.19,0,0,1,2-.26,4.08,4.08,0,0,1,3.66,3.66,7,7,0,0,1,0,1.59,6.68,6.68,0,0,1-.38,1.51,6.38,6.38,0,0,1-1.34,2,18.54,18.54,0,0,1-1.77,1.59l-3.12,2.56-.6.52-.29.25A.61.61,0,0,1,239,70.07Zm-3-13.13a4.07,4.07,0,0,0-1.06.16,3.07,3.07,0,0,0-2.16,2.76,6.6,6.6,0,0,0,0,1.4,4.8,4.8,0,0,0,.55,1.74,7.12,7.12,0,0,0,1.07,1.42c.54.59,1.15,1.15,1.73,1.69l.13.12c.91.85,1.87,1.75,2.8,2.68l.61-.52,3.11-2.56a17.22,17.22,0,0,0,1.68-1.51,5.16,5.16,0,0,0,1.14-1.71,5.63,5.63,0,0,0,.32-1.27,6.3,6.3,0,0,0,.05-1.35,3.12,3.12,0,0,0-.78-1.77,3.06,3.06,0,0,0-2-1,3.13,3.13,0,0,0-1.55.19A3.67,3.67,0,0,0,240,58.67l-.15.2-.06.08a.51.51,0,0,1-.42.21.53.53,0,0,1-.41-.23l.43-.27-.43.25a4.57,4.57,0,0,0-.62-.85A3.3,3.3,0,0,0,235.93,56.94Zm3,1.43.41.29Z" fill="#d1d3d4"></path><path d="M233.27,92.52h-.09a1.71,1.71,0,0,1-1.38-.75.5.5,0,0,1,.11-.69.51.51,0,0,1,.7.11.72.72,0,0,0,.61.33h.05a3.49,3.49,0,0,0,2.23-1.29,25.34,25.34,0,0,0,5.91-17.85.49.49,0,0,1,.47-.53.5.5,0,0,1,.53.46,26.43,26.43,0,0,1-6.14,18.56A4.5,4.5,0,0,1,233.27,92.52Z" fill="#d1d3d4"></path></g></svg>