<svg xmlns="http://www.w3.org/2000/svg" viewBox="0 0 400 300" width="406" height="306" class="illustration styles_illustrationTablet__1DWOa"><g id="_129_world_map_outline" data-name="#129_world_map_outline"><rect x="81.54" y="100.32" width="236.92" height="135.23" rx="4.5" fill="#fff"></rect><path d="M314,236.55H86a5.5,5.5,0,0,1-5.5-5.5V104.81A5.49,5.49,0,0,1,86,99.32H314a5.49,5.49,0,0,1,5.5,5.49V231.05A5.5,5.5,0,0,1,314,236.55ZM86,101.32a3.5,3.5,0,0,0-3.5,3.49V231.05a3.5,3.5,0,0,0,3.5,3.5H314a3.5,3.5,0,0,0,3.5-3.5V104.81a3.5,3.5,0,0,0-3.5-3.49Z" fill="#093f68"></path><path d="M290.61,101.32H109.39a1,1,0,0,1-.38-1.93L199.62,62.7a1.1,1.1,0,0,1,.76,0L291,99.39a1,1,0,0,1-.38,1.93Zm-176.09-2h171L200,64.71Z" fill="#093f68"></path><path d="M160.15,181.48c1.55.1,3.47.61,3.73,2.14.27,1.71-1.83,3-1.83,4.72a23.6,23.6,0,0,0,.54,2.32c.17,1.59-1.15,2.9-2.29,4a55.55,55.55,0,0,0-9,12.67,19.38,19.38,0,0,0-1.77,3.81,10.82,10.82,0,0,0,.29,7.21,6.82,6.82,0,0,1,.66,2.08,1.63,1.63,0,0,1-1.05,1.72,2.32,2.32,0,0,1-1.77-.6L144,219a6.05,6.05,0,0,1-3.36-5.7l-1.53-16.39a4.87,4.87,0,0,0-.59-2.26,5.69,5.69,0,0,0-1.65-1.43,18,18,0,0,1-5-5.26,5.77,5.77,0,0,1-1-2.66c-.06-1.38.71-2.64,1.21-3.93.84-2.19.9-4.61,1.64-6.85s2.53-4.43,4.88-4.45c2.74,0,4.73,2.83,7.44,3.21.8.11,1.62,0,2.42.14,2.67.5,3.86,3.42,5.54,5.21A9,9,0,0,0,160.15,181.48Z" fill="#1FE079"></path><path d="M149.15,223.21a3.69,3.69,0,0,1-2.05-.82l-3.69-2.56a7,7,0,0,1-3.79-6.42L138.09,197a2.73,2.73,0,0,0-1.6-2.82l-.21-.15A18.79,18.79,0,0,1,131,188.5a6.63,6.63,0,0,1-1.16-3.14,7.72,7.72,0,0,1,.89-3.43c.13-.3.27-.6.38-.9a19.79,19.79,0,0,0,.86-3.49,25.23,25.23,0,0,1,.77-3.32c.78-2.35,2.78-5.11,5.82-5.14a8.31,8.31,0,0,1,4.52,1.77,8.17,8.17,0,0,0,3.07,1.45c.31,0,.64,0,1,0a7.47,7.47,0,0,1,1.47.1c2.3.43,3.63,2.26,4.8,3.87a18,18,0,0,0,1.29,1.64,8,8,0,0,0,5.52,2.52h0c2.67.17,4.37,1.26,4.65,3a4.39,4.39,0,0,1-1,3.18,3.62,3.62,0,0,0-.77,1.7,3.53,3.53,0,0,0,.22,1,5.52,5.52,0,0,1,.32,1.26c.21,2.06-1.33,3.59-2.57,4.82-3.72,3.67-6.44,8.16-8.84,12.45a19.3,19.3,0,0,0-1.69,3.63,9.92,9.92,0,0,0,.27,6.54l.15.37a6,6,0,0,1,.58,2,2.6,2.6,0,0,1-1.82,2.75A2.37,2.37,0,0,1,149.15,223.21Zm-10.56-52.13h0c-1.86,0-3.32,1.91-3.94,3.77a21.92,21.92,0,0,0-.7,3.05,21.36,21.36,0,0,1-1,3.84c-.13.33-.27.67-.42,1a5.91,5.91,0,0,0-.72,2.53,4.8,4.8,0,0,0,.85,2.17,17,17,0,0,0,4.74,5l.2.13a4.65,4.65,0,0,1,2.47,4.29l1.53,16.39a5.08,5.08,0,0,0,2.93,5l3.69,2.57c.2.14.72.5,1,.45s.31-.34.29-.7a4.42,4.42,0,0,0-.42-1.35l-.17-.4a11.81,11.81,0,0,1-.32-7.89,21.92,21.92,0,0,1,1.85-4A56.21,56.21,0,0,1,159.6,194c1-1,2.11-2.1,2-3.2a4.56,4.56,0,0,0-.22-.84,4.77,4.77,0,0,1-.33-1.59,5.13,5.13,0,0,1,1.1-2.8c.44-.67.82-1.24.74-1.75-.14-.85-1.54-1.23-2.81-1.31a9.94,9.94,0,0,1-6.85-3.16,20,20,0,0,1-1.45-1.82c-1-1.44-2-2.8-3.55-3.08a5.71,5.71,0,0,0-1.12-.07,10.67,10.67,0,0,1-1.24-.07,9.76,9.76,0,0,1-3.89-1.75A6.68,6.68,0,0,0,138.59,171.08Z" fill="#093f68"></path><path d="M132.75,166.77a4.13,4.13,0,0,0-2.54-3.26c-1.55-.49-3.47.26-4.75-.75-1-.8-1.07-2.3-.94-3.59a7.27,7.27,0,0,1,1.06-3.41,3.15,3.15,0,0,1,3.09-1.41c1.67.38,2.38,2.29,3.5,3.59a1.63,1.63,0,0,0,1.1.68c1.24,0,1.25-1.84,1.85-2.93s2.33-1.48,3.23-2.53.86-2.38,1.53-3.45c1.53-2.44,5.48-2.12,7.25-4.38.85-1.08,1.09-2.65,2.22-3.44,1.59-1.1,4.15-.09,5.49-1.48a4.15,4.15,0,0,0,.85-2.39c.24-1.73.08-4.08-1.63-4.46-1.28-.29-2.77.84-3.84.08-.73-.52-.81-1.69-1.58-2.14-.94-.55-2.06.33-2.76,1.16a20.13,20.13,0,0,1-3.17,3.35,5,5,0,0,1-4.34,1,2.91,2.91,0,0,1-2-3.61,4.65,4.65,0,0,1,2.17-2l4.36-2.53a3,3,0,0,0,1.43-1.34c.38-1-.41-2-1.13-2.83a2.4,2.4,0,0,0-.9-.72c-.91-.34-1.81.43-2.59,1a11.16,11.16,0,0,1-7.73,1.75,52.3,52.3,0,0,1-7.89-1.78,61.46,61.46,0,0,0-8.52-1.59,16.41,16.41,0,0,0-5.28,0,15.88,15.88,0,0,0-5.8,2.92,49.52,49.52,0,0,0-5.83,5c-1.31,1.31-2.63,3.27-1.7,4.87a1.28,1.28,0,0,0,.84.67,1.74,1.74,0,0,0,1.29-.48c2.32-1.64,4.77-3.36,7.6-3.6s6,1.65,6.13,4.48-3,5-4.06,7.77c-1.48,3.79,1,7.87,3.37,11.18l5.36,7.5a6.9,6.9,0,0,0,1.87,2,8.56,8.56,0,0,0,2.34.76,16.9,16.9,0,0,1,5.91,2.74c.87.64,3.21,2.8,4.43,2.21S132.92,167.73,132.75,166.77Z" fill="#1FE079"></path><path d="M131.6,172.47c-1.4,0-2.95-1.24-4-2.11l-.49-.39a16.14,16.14,0,0,0-5.56-2.58l-.38-.09a7.59,7.59,0,0,1-2.24-.78,7.67,7.67,0,0,1-2.17-2.25l-5.36-7.49c-2.64-3.68-5.11-8-3.49-12.14a14.2,14.2,0,0,1,2-3.28c1-1.36,2-2.64,2-4.08a3.22,3.22,0,0,0-1.15-2.25,5.51,5.51,0,0,0-3.91-1.28c-2.6.23-5,1.93-7.1,3.43a2.72,2.72,0,0,1-2,.65,2.28,2.28,0,0,1-1.54-1.15c-1-1.73-.34-3.89,1.86-6.09a50.69,50.69,0,0,1,6-5.09,16.74,16.74,0,0,1,6.17-3.09,17.06,17.06,0,0,1,5.61,0,63.63,63.63,0,0,1,8.65,1.61q.88.23,1.77.48a36.22,36.22,0,0,0,6,1.28,10.33,10.33,0,0,0,7-1.56l.19-.14c.85-.63,2-1.5,3.35-1a3.34,3.34,0,0,1,1.28,1c.54.59,2,2.15,1.33,3.86a3.82,3.82,0,0,1-1.86,1.85l-4.35,2.53a3.93,3.93,0,0,0-1.76,1.52,1.47,1.47,0,0,0,.08,1.14,2.22,2.22,0,0,0,1.27,1.14,4,4,0,0,0,3.45-.85,14.94,14.94,0,0,0,2.49-2.58l.51-.61c1.31-1.56,2.82-2.07,4-1.37a3.23,3.23,0,0,1,1.22,1.5,2.15,2.15,0,0,0,.44.68c.22.16.64.08,1.3-.08a4.77,4.77,0,0,1,2.18-.16c1.92.43,2.82,2.52,2.41,5.57a5,5,0,0,1-1.13,2.95,4.88,4.88,0,0,1-3.51,1.17,4.31,4.31,0,0,0-2.13.45,3.88,3.88,0,0,0-1.06,1.59,8.24,8.24,0,0,1-.94,1.64,8.45,8.45,0,0,1-4,2.39c-1.32.48-2.57.93-3.18,1.9a6.25,6.25,0,0,0-.54,1.33,6.09,6.09,0,0,1-1.08,2.24,6.29,6.29,0,0,1-1.77,1.31,3.37,3.37,0,0,0-1.35,1.06,6.11,6.11,0,0,0-.37,1c-.28.92-.76,2.45-2.3,2.45h-.09a2.56,2.56,0,0,1-1.82-1,14.87,14.87,0,0,1-1-1.32c-.64-1-1.19-1.77-2-1.94a2.17,2.17,0,0,0-2,1,6.26,6.26,0,0,0-.88,2.94c-.15,1.38,0,2.28.56,2.69a3.45,3.45,0,0,0,2.07.36,7.54,7.54,0,0,1,2.37.23,5,5,0,0,1,3.21,4c0,.19.85,4.69-1.23,5.68A2,2,0,0,1,131.6,172.47Zm-24.4-40.73a7.44,7.44,0,0,1,4.84,1.8,5.14,5.14,0,0,1,1.81,3.67c.08,2.15-1.16,3.78-2.36,5.36a12.9,12.9,0,0,0-1.77,2.8c-1.27,3.25.93,7,3.25,10.24l5.37,7.5a4,4,0,0,0,3.23,2.24l.4.1a17.92,17.92,0,0,1,6.26,2.91l.57.43c1.9,1.52,2.59,1.75,2.84,1.68a7.09,7.09,0,0,0,.12-3.52h0a3.07,3.07,0,0,0-1.85-2.48,5.61,5.61,0,0,0-1.74-.14,5,5,0,0,1-3.33-.78c-1.11-.88-1.54-2.35-1.31-4.49a8.37,8.37,0,0,1,1.23-3.87,4.07,4.07,0,0,1,4.13-1.81c1.57.35,2.44,1.63,3.2,2.77a14.08,14.08,0,0,0,.84,1.14c.25.3.38.33.38.33a4.38,4.38,0,0,0,.41-1.05,7.47,7.47,0,0,1,.52-1.36,5,5,0,0,1,2.11-1.83,4.69,4.69,0,0,0,1.24-.88,4.42,4.42,0,0,0,.7-1.53,7.26,7.26,0,0,1,.75-1.79c1-1.56,2.68-2.18,4.19-2.72a6.65,6.65,0,0,0,3.11-1.74,6.1,6.1,0,0,0,.71-1.27,5.6,5.6,0,0,1,1.73-2.38,5.94,5.94,0,0,1,3.15-.8,2.15,2.15,0,0,0,2.77-2.38c.16-1.14.15-3.13-.86-3.36a3.45,3.45,0,0,0-1.28.15,3.35,3.35,0,0,1-2.92-.23,3.63,3.63,0,0,1-1.07-1.41,1.85,1.85,0,0,0-.44-.68c-.25-.15-.91.26-1.48.94l-.5.6a16.67,16.67,0,0,1-2.85,2.91,6,6,0,0,1-5.23,1.15,4.22,4.22,0,0,1-2.48-2.21,3.37,3.37,0,0,1-.12-2.74,5.52,5.52,0,0,1,2.6-2.48l4.36-2.54c.46-.27.88-.53,1-.82s-.17-1-.93-1.81a1.82,1.82,0,0,0-.51-.45c-.32-.12-.94.34-1.45.72l-.2.15a12.22,12.22,0,0,1-8.41,1.94,38.3,38.3,0,0,1-6.3-1.34l-1.75-.47a61.51,61.51,0,0,0-8.38-1.57,14.9,14.9,0,0,0-5,0,14.86,14.86,0,0,0-5.42,2.75A48.23,48.23,0,0,0,99.4,132c-.55.55-2.27,2.42-1.55,3.67a.54.54,0,0,0,.17.19,1.82,1.82,0,0,0,.52-.31c2.32-1.65,4.94-3.52,8.09-3.79Z" fill="#093f68"></path><path d="M140.9,164.74a6.55,6.55,0,0,0-4.33-2.27,1.55,1.55,0,0,0-.95.14.61.61,0,0,0-.21.84l2.91,2a2.34,2.34,0,0,0,.89.45,1.21,1.21,0,0,0,1.32-1.35" fill="#1FE079"></path><path d="M139.37,166.94a1.84,1.84,0,0,1-.33,0,3.09,3.09,0,0,1-1.3-.61l-2.9-2a1,1,0,0,1-.21-.19,1.47,1.47,0,0,1-.3-1.17,1.71,1.71,0,0,1,.76-1.14,2.4,2.4,0,0,1,1.58-.3,7.57,7.57,0,0,1,5,2.63,1,1,0,0,1-.12,1.41.76.76,0,0,1-.19.12,2.35,2.35,0,0,1-.44.64A2.15,2.15,0,0,1,139.37,166.94Zm-1.93-3.29,1.45,1a1.81,1.81,0,0,0,.49.28.29.29,0,0,0,.16-.15A5.52,5.52,0,0,0,137.44,163.65Z" fill="#093f68"></path><path d="M177.49,124.31c-.83,1.59-1.45,3.6-3.15,4.17a13.69,13.69,0,0,1-2.8.22c-3.43.37-5.54,4.45-9,4.85a1.86,1.86,0,0,1-1.74-.53,1.76,1.76,0,0,1-.3-1c-.1-2.25,1.76-4.68.5-6.54a7.15,7.15,0,0,0-2.47-1.71c-.87-.52-1.7-1.48-1.4-2.45s1.64-1.32,2.73-1.41l12.78-1.08c1.8-.15,4.62-.48,6.21.64C181.14,121.05,178.42,122.5,177.49,124.31Z" fill="#1FE079"></path><path d="M162.21,134.58a2.64,2.64,0,0,1-2.16-1,2.68,2.68,0,0,1-.51-1.58,9.39,9.39,0,0,1,.52-3c.41-1.42.62-2.33.15-3a3.94,3.94,0,0,0-1.43-1l-.73-.4c-1.14-.68-2.31-2-1.84-3.59.57-1.86,2.86-2,3.61-2.11l13.1-1.12c2-.17,4.75-.41,6.54.85a2.75,2.75,0,0,1,1.28,1.86c.14,1.15-.64,2.07-1.39,3a7.44,7.44,0,0,0-1,1.31c-.14.27-.28.57-.41.86-.71,1.49-1.51,3.19-3.3,3.8a6.13,6.13,0,0,1-2.08.23c-.31,0-.62,0-.93,0-1.43.16-2.67,1.16-4,2.21s-3,2.41-5,2.65Zm13.2-14.92c-.81,0-1.63.07-2.31.13L160,120.9c-1.09.09-1.76.34-1.87.7s.4,1,1,1.3c.2.12.42.23.63.34a5.5,5.5,0,0,1,2.15,1.67c1,1.52.55,3.21.12,4.7a8,8,0,0,0-.44,2.36.8.8,0,0,0,.1.45,1,1,0,0,0,.82.14c1.42-.16,2.65-1.16,4-2.21,1.47-1.19,3-2.43,5-2.65a11.63,11.63,0,0,1,1.17,0,4.24,4.24,0,0,0,1.42-.13c1-.33,1.54-1.51,2.13-2.75q.21-.48.45-.93h0a8.83,8.83,0,0,1,1.23-1.69c.38-.45,1-1.13.93-1.41,0-.08-.14-.25-.45-.47A5.25,5.25,0,0,0,175.41,119.66Z" fill="#093f68"></path><path d="M179,158.44a6.32,6.32,0,0,0-1.4,2.12,7.33,7.33,0,0,0-.14,2.52c.1,2.76-.39,5.54,0,8.27s2.08,5.57,4.78,6.16a11.47,11.47,0,0,0,4.08-.21,26.67,26.67,0,0,1,5.43-.22A2.69,2.69,0,0,1,194,178c.55.92-.09,2.09,0,3.16.08,1.39,1.3,2.4,2.26,3.41s1.73,2.63.88,3.73c-.3.38-.74.63-1,1a3.25,3.25,0,0,0-.27,2.35l.68,4.91a6.26,6.26,0,0,0,.53,2.06c.29.58.76,1.06,1,1.65a13,13,0,0,1,.65,3.32A5.86,5.86,0,0,0,209,206.22c2.06-2.44,1.84-6.11,3.48-8.86.93-1.56,2.48-2.83,2.86-4.62.31-1.46-.22-3-.26-4.44-.08-2.51,1.27-4.86,2.86-6.82s3.47-3.68,4.8-5.82a1.7,1.7,0,0,0,.33-.88c0-1-1.28-1.31-2.23-1.6-2.69-.83-4.18-3.64-5.34-6.2a35.72,35.72,0,0,0-3.63-6.83,10.79,10.79,0,0,0-6.22-4.33c-3-.61-3.94,2.42-7.1.68-2-1.09-3.31-3.28-5.42-4.22C187.69,149.88,182.22,154.74,179,158.44Z" fill="#1FE079"></path><path d="M204.4,209.3a6.84,6.84,0,0,1-1.62-.2,7,7,0,0,1-5-5.26c-.08-.42-.13-.85-.17-1.28a3.69,3.69,0,0,0-.84-2.5,8.22,8.22,0,0,1-.61-.95,7.44,7.44,0,0,1-.62-2.37l-.68-4.91a4.1,4.1,0,0,1,.46-3.08,3.79,3.79,0,0,1,.68-.7,2.87,2.87,0,0,0,.35-.34c.44-.56-.09-1.67-.81-2.43l-.44-.45a5.76,5.76,0,0,1-2.09-3.59,6.14,6.14,0,0,1,.14-1.46,2.09,2.09,0,0,0,0-1.24c-.16-.26-.65-.42-1.46-.46a25.37,25.37,0,0,0-5.23.21l-.58.09a10.34,10.34,0,0,1-3.85.1c-3.43-.74-5.14-4.22-5.56-7a26.46,26.46,0,0,1-.1-5.18c.06-1.06.11-2.16.07-3.21v-.33a6.88,6.88,0,0,1,.2-2.52,7,7,0,0,1,1.6-2.48h0c5.45-6.21,10.74-8.43,15.27-6.41a11.32,11.32,0,0,1,3.2,2.41,11.7,11.7,0,0,0,2.29,1.85,2.77,2.77,0,0,0,3.07-.12,5.5,5.5,0,0,1,3.75-.67,11.76,11.76,0,0,1,6.82,4.71,34,34,0,0,1,3.52,6.52l.22.49c1.14,2.54,2.51,5,4.73,5.66l.2.07c1,.31,2.77.83,2.73,2.51a2.81,2.81,0,0,1-.48,1.39,28.66,28.66,0,0,1-3.17,4c-.57.64-1.17,1.3-1.71,2-1.83,2.26-2.69,4.27-2.63,6.17a12.18,12.18,0,0,0,.17,1.52,8.73,8.73,0,0,1,.07,3.15,8.6,8.6,0,0,1-1.93,3.46,15,15,0,0,0-1.06,1.47,14.3,14.3,0,0,0-1.34,3.78,12.53,12.53,0,0,1-2.22,5.21A7,7,0,0,1,204.4,209.3ZM190.13,176c.56,0,1.11,0,1.66.05a3.68,3.68,0,0,1,3.06,1.42,3.63,3.63,0,0,1,.23,2.64,5.33,5.33,0,0,0-.11,1,4.22,4.22,0,0,0,1.52,2.31l.46.48c1.32,1.4,2.13,3.49,1,5a4.29,4.29,0,0,1-.64.64,3.26,3.26,0,0,0-.37.35,2.55,2.55,0,0,0-.09,1.64l.68,4.91a5.84,5.84,0,0,0,.43,1.74,5.53,5.53,0,0,0,.44.68,7.37,7.37,0,0,1,.62,1,7.08,7.08,0,0,1,.58,2.49c0,.36.08.73.15,1.08a4.87,4.87,0,0,0,8.49,2.15,10.93,10.93,0,0,0,1.82-4.42,15.72,15.72,0,0,1,1.56-4.31,17.47,17.47,0,0,1,1.2-1.68,6.86,6.86,0,0,0,1.54-2.64,7,7,0,0,0-.09-2.43,12.62,12.62,0,0,1-.19-1.77c-.07-2.39.94-4.84,3.08-7.48.57-.7,1.19-1.38,1.78-2a27,27,0,0,0,3-3.68,1,1,0,0,0,.18-.37c-.11-.2-1-.45-1.31-.56l-.21-.07c-3-.92-4.63-3.78-6-6.74l-.22-.5a31.81,31.81,0,0,0-3.31-6.14,9.72,9.72,0,0,0-5.61-3.95,3.64,3.64,0,0,0-2.49.52,4.67,4.67,0,0,1-4.89.06,13.07,13.07,0,0,1-2.71-2.16,9.75,9.75,0,0,0-2.63-2c-4.62-2.06-9.6,2.07-13,5.9a5.57,5.57,0,0,0-1.2,1.76,5.68,5.68,0,0,0-.11,1.83l0,.35c0,1.14,0,2.27-.07,3.37a24.57,24.57,0,0,0,.08,4.79c.35,2.3,1.72,4.83,4,5.33a8.79,8.79,0,0,0,3.13-.12l.6-.1A27.65,27.65,0,0,1,190.13,176Z" fill="#093f68"></path><path d="M218.91,192.56a2.53,2.53,0,0,1-.09.87,2.22,2.22,0,0,1-.57.69,4.59,4.59,0,0,0-1,4.89,1.3,1.3,0,0,0,.22.38,1,1,0,0,0,.52.26,2.59,2.59,0,0,0,2.2-.69,6.68,6.68,0,0,0,1.4-1.92,13.81,13.81,0,0,0,1.41-3.31c.3-1.24.55-3.71-1.12-4.07C220.36,189.34,219,191.25,218.91,192.56Z" fill="#1FE079"></path><path d="M218.4,200.69a2.7,2.7,0,0,1-.63-.07,2,2,0,0,1-1-.53,2.26,2.26,0,0,1-.44-.71,5.59,5.59,0,0,1,1.24-6l.12-.11a2.3,2.3,0,0,0,.23-.25,2.37,2.37,0,0,0,0-.3v-.22h0a4.6,4.6,0,0,1,1.73-3.2,2.92,2.92,0,0,1,2.44-.64,2.45,2.45,0,0,1,1.6,1.11c.84,1.35.47,3.37.28,4.17a14.53,14.53,0,0,1-1.5,3.55,7.63,7.63,0,0,1-1.62,2.19A3.72,3.72,0,0,1,218.4,200.69Zm-.19-2h0Zm0-.07a1.66,1.66,0,0,0,1.35-.45,6,6,0,0,0,1.18-1.66,12.51,12.51,0,0,0,1.3-3.05,4,4,0,0,0,0-2.63.45.45,0,0,0-.32-.23,1,1,0,0,0-.79.26,2.67,2.67,0,0,0-1,1.69v.17a2.25,2.25,0,0,1-.87,2l-.09.1a3.56,3.56,0,0,0-.78,3.79Z" fill="#093f68"></path><path d="M207.27,128a5.38,5.38,0,0,1-2.2-.59,21.57,21.57,0,0,1-1.75-1.57c-2.22-1.68-5.4-.22-7.61,1.48a41.48,41.48,0,0,0-5.59,5.17l5.23,2.41a1.64,1.64,0,0,1,3.23-.46c.34,1.6-1.6,2.64-3.17,3.1l-6.74,2c-.39.11-1,0-.86-.4-.71-.6-1.55.71-1.31,1.61s.83,1.89.28,2.64-1.45.56-2.16.92c-1.68.85-1.11,3.36-.29,5.05a8.26,8.26,0,0,1,9.25-.89,7.63,7.63,0,0,0,1.93,1,6.52,6.52,0,0,0,2.92-.33,12.71,12.71,0,0,1,9.3,1.48c-.64.37-.29,1.44.36,1.81s1.46.36,2.12.7a4.47,4.47,0,0,1,1.57,1.71l5.27,8.28a9.61,9.61,0,0,0,2.8,3.2,4.75,4.75,0,0,0,7.19-4.64L224,159.68c1.23-1.45,3.52-1.46,5.31-.81s3.39,1.79,5.22,2.31a2.93,2.93,0,0,1,1.32.58,2.62,2.62,0,0,1,.57,1.45,16.19,16.19,0,0,0,4.87,8.67,3,3,0,0,0,1.33.81c1.6.32,2.6-1.74,2.63-3.37s-.17-3.56,1.1-4.58c1.73-1.36,4.15.33,5.67,1.92l4,4.24c1.4,1.46,3.59,3,5.22,1.83,1.46-1.08,1-3.34.38-5.06s-.9-4.07.69-4.95,4.19.82,5.69-.45a2.78,2.78,0,0,0,.65-2.63c-.38-1.95-1.72-3.57-2.47-5.41s-.64-4.41,1.13-5.31a17.59,17.59,0,0,0,4.16,5.2l1.81-12.61a3.65,3.65,0,0,0,0-1.74c-.61-1.81-3.63-2-4-3.89a2.37,2.37,0,0,1,1.91-2.47,6.91,6.91,0,0,1,3.39.31,7.29,7.29,0,0,0,7.08,5.77,5,5,0,0,1,.84-6.33c.58-.52,1.31-.92,1.65-1.62.83-1.72-1.24-3.41-3.06-4-11.16-3.49-24.06,3.88-34.63-1.11-3.22-1.52-6.43-5-10.13-5.23-2.77-.18-4,1.64-6.14,3-3.44,2.2-6.44.5-10,1.59-2,.61-3.46,2-5.64,2.37A24.84,24.84,0,0,1,207.27,128Z" fill="#1FE079"></path><path d="M259.89,174.16c-1.41,0-3-.87-4.63-2.58l-4-4.23c-1.31-1.38-3.23-2.68-4.32-1.82-.72.57-.72,1.81-.72,3.11v.7a5.22,5.22,0,0,1-1.64,3.78,2.62,2.62,0,0,1-2.19.55,3.8,3.8,0,0,1-1.81-1.06,17.09,17.09,0,0,1-5.17-9.21,2.25,2.25,0,0,0-.29-.93,1.93,1.93,0,0,0-.71-.28l-.18-.05a16.33,16.33,0,0,1-3.08-1.32,18.76,18.76,0,0,0-2.21-1,5,5,0,0,0-3.15-.17l1.8,1.12a1,1,0,0,1,.47.72,5.75,5.75,0,0,1-8.71,5.62,10.43,10.43,0,0,1-3.12-3.52l-5.27-8.27a3.72,3.72,0,0,0-1.19-1.36,3.6,3.6,0,0,0-.8-.25,5.31,5.31,0,0,1-1.35-.47,2.47,2.47,0,0,1-1.21-2,1.93,1.93,0,0,1,0-.24,11.75,11.75,0,0,0-7.74-.92l-.46.11a6.06,6.06,0,0,1-2.93.22,6,6,0,0,1-1.76-.83l-.42-.25a7.24,7.24,0,0,0-8.11.78,1,1,0,0,1-.85.22,1,1,0,0,1-.7-.54c-1.42-2.93-1.13-5.44.74-6.38a4.56,4.56,0,0,1,1.08-.36,1.92,1.92,0,0,0,.72-.26c.11-.16-.08-.73-.22-1.11-.08-.23-.16-.46-.22-.68a2.66,2.66,0,0,1,1-2.76,1.56,1.56,0,0,1,1.89.12.57.57,0,0,1,.13.14l6.55-1.89c1.31-.38,2.64-1.15,2.47-1.92a.7.7,0,0,0-.71-.5.69.69,0,0,0-.54.67,1,1,0,0,1-.43.89,1,1,0,0,1-1,.09l-5.22-2.41a1,1,0,0,1-.33-1.57,41.6,41.6,0,0,1,5.72-5.3c1.61-1.24,5.69-3.86,8.82-1.48a8.46,8.46,0,0,1,.87.79,4.07,4.07,0,0,0,.81.72,4.62,4.62,0,0,0,1.79.45l.18,0a23.82,23.82,0,0,0,6.73.18,9.74,9.74,0,0,0,2.92-1.18,11.36,11.36,0,0,1,7.16-1.6c1.86,0,3.47.08,5.22-1,.52-.34,1-.72,1.48-1.08,1.39-1.1,2.84-2.23,5.25-2.08,2.67.16,5,1.75,7.2,3.28a25.08,25.08,0,0,0,3.29,2c5.36,2.53,11.33,1.73,17.66.89,5.61-.75,11.41-1.52,16.85.18a6.09,6.09,0,0,1,3.7,2.94,2.84,2.84,0,0,1,0,2.42,4.51,4.51,0,0,1-1.45,1.57c-.15.12-.31.24-.45.37a4,4,0,0,0-.66,5,1,1,0,0,1-.82,1.56,8.35,8.35,0,0,1-7.93-6,5,5,0,0,0-2.32-.16c-.62.16-1.27.76-1.16,1.32s.63.83,1.51,1.34a4.75,4.75,0,0,1,2.44,2.4,4.65,4.65,0,0,1,.07,2.21l-1.81,12.61a1,1,0,0,1-.64.79,1,1,0,0,1-1-.17,18.47,18.47,0,0,1-3.75-4.37,4.21,4.21,0,0,0,0,3.34,19.91,19.91,0,0,0,1,2,12.19,12.19,0,0,1,1.54,3.66,3.71,3.71,0,0,1-1,3.58c-1.13,1-2.57.73-3.73.54a3.66,3.66,0,0,0-2.12,0c-1.21.67-.4,3.24-.23,3.75.38,1.11,1.55,4.51-.73,6.18A3.08,3.08,0,0,1,259.89,174.16Zm-12.14-10.92c1.5,0,3.23.93,4.94,2.74l4,4.23c.43.45,2.62,2.65,3.9,1.71.72-.53.73-1.85,0-3.92-1-2.95-.59-5.19,1.16-6.15a5,5,0,0,1,3.41-.24c1,.17,1.71.25,2.11-.1a1.89,1.89,0,0,0,.31-1.68,10.66,10.66,0,0,0-1.32-3.06,20,20,0,0,1-1.09-2.17c-.94-2.31-.69-5.4,1.61-6.57a1,1,0,0,1,1.34.42,16.78,16.78,0,0,0,2.55,3.6l1.54-10.68a3.08,3.08,0,0,0,0-1.28c-.18-.52-.85-.91-1.56-1.32a4.27,4.27,0,0,1-2.47-2.7,3.34,3.34,0,0,1,2.65-3.63,7.68,7.68,0,0,1,3.89.32,1,1,0,0,1,.72.78A6.34,6.34,0,0,0,280,138.3a6.1,6.1,0,0,1,1.76-5.89c.18-.16.37-.3.55-.45a2.84,2.84,0,0,0,.87-.86.83.83,0,0,0,0-.75,4.16,4.16,0,0,0-2.46-1.83c-5-1.57-10.59-.83-16-.11-6.34.85-12.89,1.72-18.78-1.06a26.44,26.44,0,0,1-3.57-2.2c-2-1.38-4.08-2.81-6.19-2.94-1.65-.09-2.6.64-3.9,1.66-.51.4-1,.81-1.64,1.2a10.24,10.24,0,0,1-6.33,1.35,12.25,12.25,0,0,0-3.94.34,12.39,12.39,0,0,0-2.23,1,11.68,11.68,0,0,1-3.53,1.39,25.55,25.55,0,0,1-7.31-.16l-.17,0h0a6.36,6.36,0,0,1-2.6-.73,6.44,6.44,0,0,1-1.19-1,5.92,5.92,0,0,0-.65-.6c-2.08-1.59-5.42.73-6.39,1.47a40.44,40.44,0,0,0-4.53,4.05l2.91,1.34a2.62,2.62,0,0,1,4.86.73c.39,1.83-1.09,3.46-3.87,4.27l-6.74,2a2.05,2.05,0,0,1-1.49-.15.61.61,0,0,0,0,.14c0,.18.11.36.17.55a3,3,0,0,1-.06,2.94,2.92,2.92,0,0,1-1.86,1,3.36,3.36,0,0,0-.65.2c-.7.36-.61,1.52-.28,2.6a9.34,9.34,0,0,1,9.29-.2l.48.29a3,3,0,0,0,3.16.37l.49-.12a13.78,13.78,0,0,1,10,1.6,1,1,0,0,1,.17,1.59.36.36,0,0,0,.16.2,3.52,3.52,0,0,0,.83.27,4.3,4.3,0,0,1,3.21,2.48l5.28,8.28a8.81,8.81,0,0,0,2.48,2.89,3.84,3.84,0,0,0,4-.05,3.89,3.89,0,0,0,1.71-3.17l-2.66-1.65a1,1,0,0,1-.46-.69,1,1,0,0,1,.23-.8c1.63-1.93,4.47-1.81,6.41-1.11A20.84,20.84,0,0,1,232,159a14.93,14.93,0,0,0,2.72,1.18l.15,0a3.37,3.37,0,0,1,1.59.78,3.42,3.42,0,0,1,.84,1.9,15.18,15.18,0,0,0,4.58,8.2,2.19,2.19,0,0,0,.85.57.6.6,0,0,0,.54-.15,3.26,3.26,0,0,0,.89-2.26v-.65c0-1.57,0-3.51,1.48-4.69A3.28,3.28,0,0,1,247.75,163.24Z" fill="#093f68"></path><path d="M282.11,189.39c-.13-1.34-1.18-3-2.44-2.49-1,.39-1.08,1.74-1.84,2.46-1,.95-2.79.47-3.91,1.3-.86.63-1.06,1.83-1.7,2.69-1.25,1.69-3.78,1.69-5.54,2.83a4.86,4.86,0,0,0-2.13,4.46,10.19,10.19,0,0,1,.23,2.19,9.32,9.32,0,0,1-1.2,2.61c-.4.88-.44,2.12.4,2.6,1.19.69,2.4-.83,3.64-1.45,1.6-.79,3.56,0,5.28-.44a4.67,4.67,0,0,1,2.08-.42c1.52.32,1.45,2.55,2.38,3.79a10.07,10.07,0,0,0,1.27,1.17,5,5,0,0,1,1.59,3.43,2.15,2.15,0,0,0,2.1-1c.48-.67.74-1.47,1.17-2.17,1-1.62,2.75-2.56,4.27-3.7a16.84,16.84,0,0,0,4.08-4.42,3.07,3.07,0,0,0,.62-2.44c-.23-.73-.92-1.2-1.42-1.78-1.25-1.44-1.29-3.53-1.48-5.43s-.79-4.06-2.54-4.84c-.87.78-.79,2.14-1.11,3.27a1.83,1.83,0,0,1-2.7,1.29C282.17,192.26,282.22,190.42,282.11,189.39Z" fill="#1FE079"></path><path d="M280.56,215.16a2.79,2.79,0,0,1-.58-.07,1,1,0,0,1-.76-.93,4.05,4.05,0,0,0-1.27-2.73c-.12-.12-.26-.23-.39-.34a6,6,0,0,1-1-1,7.06,7.06,0,0,1-.91-1.93c-.3-.87-.51-1.4-.88-1.48a2,2,0,0,0-1,.2c-.22.08-.43.15-.65.21a8.2,8.2,0,0,1-2.69.14,5,5,0,0,0-2.41.23,9,9,0,0,0-1,.62c-.93.68-2.22,1.61-3.62.8s-1.43-2.55-.81-3.89c.15-.31.33-.62.5-.92a4.13,4.13,0,0,0,.62-1.4,4.34,4.34,0,0,0-.11-1.14c-.05-.27-.1-.54-.13-.81a5.9,5.9,0,0,1,2.58-5.41,11.42,11.42,0,0,1,2.58-1.11,3.67,3.67,0,0,0,3.22-2.42,4.86,4.86,0,0,1,1.4-2,5,5,0,0,1,2.34-.77,2.84,2.84,0,0,0,1.47-.45,3.2,3.2,0,0,0,.52-.84A3.3,3.3,0,0,1,279.3,186a2.23,2.23,0,0,1,2,.18,4.3,4.3,0,0,1,1.79,3.14h0c0,.17,0,.35,0,.54.05.73.14,1.94.58,2.21a.65.65,0,0,0,.6.06,1.13,1.13,0,0,0,.62-.77c.08-.3.13-.61.19-.93a4.49,4.49,0,0,1,1.21-2.81,1,1,0,0,1,1.08-.18c1.78.8,2.83,2.7,3.12,5.66l.07.66c.14,1.64.28,3.18,1.18,4.22.13.15.28.29.42.43a4.25,4.25,0,0,1,1.2,1.7,4,4,0,0,1-.74,3.27,17.71,17.71,0,0,1-4.32,4.69c-.36.27-.74.54-1.12.8a9.61,9.61,0,0,0-2.9,2.62c-.16.27-.3.57-.44.86a9.14,9.14,0,0,1-.77,1.38A3.29,3.29,0,0,1,280.56,215.16Zm-5.91-10.47a2.48,2.48,0,0,1,.54.06c1.5.32,2,1.69,2.35,2.78a5.66,5.66,0,0,0,.62,1.39,4.6,4.6,0,0,0,.67.63c.16.13.33.27.48.41a6,6,0,0,1,1.75,3,1.87,1.87,0,0,0,.45-.44,7.27,7.27,0,0,0,.59-1.08c.17-.35.34-.7.54-1a11.13,11.13,0,0,1,3.45-3.22c.36-.25.72-.5,1.07-.76a15.81,15.81,0,0,0,3.83-4.16c.46-.72.63-1.25.52-1.6a2.64,2.64,0,0,0-.69-.87,5.58,5.58,0,0,1-.53-.56c-1.32-1.52-1.5-3.55-1.67-5.34l-.06-.65a6.12,6.12,0,0,0-1.24-3.52,7.77,7.77,0,0,0-.21,1,10,10,0,0,1-.23,1.14,3.12,3.12,0,0,1-1.82,2.09,2.6,2.6,0,0,1-2.36-.21c-1.33-.8-1.46-2.59-1.54-3.77,0-.18,0-.34,0-.49a2.46,2.46,0,0,0-.83-1.63.24.24,0,0,0-.25,0c-.21.08-.39.46-.59.86a4.9,4.9,0,0,1-.93,1.39,4.38,4.38,0,0,1-2.56,1,3.42,3.42,0,0,0-1.44.4,3.32,3.32,0,0,0-.78,1.2A7.22,7.22,0,0,1,273,194a7,7,0,0,1-3.69,2.18,9.32,9.32,0,0,0-2.12.89,3.84,3.84,0,0,0-1.68,3.52c0,.22.07.44.11.66a4.56,4.56,0,0,1-.75,3.91,7.83,7.83,0,0,0-.41.75c-.24.53-.25,1.18,0,1.32s.76-.19,1.45-.69a10,10,0,0,1,1.24-.79,6.59,6.59,0,0,1,3.41-.43,7,7,0,0,0,2.07-.08l.49-.17A4.65,4.65,0,0,1,274.65,204.69Z" fill="#093f68"></path><path d="M286,185.5a2.09,2.09,0,0,1-2.09-.75c-.28-.47-.26-1.06-.52-1.54-.48-.92-1.76-1.12-2.37-2a.41.41,0,0,1-.11-.31c0-.22.32-.28.54-.29l2.1-.08a5.72,5.72,0,0,1,3.36.54,4.72,4.72,0,0,1,1.42,1.62,7.44,7.44,0,0,1,1,2.5A9.8,9.8,0,0,0,286,185.5Z" fill="#1FE079"></path><path d="M285.59,186.53a2.89,2.89,0,0,1-2.56-1.26,3.37,3.37,0,0,1-.4-1.1,2.63,2.63,0,0,0-.15-.49,2.33,2.33,0,0,0-.86-.67,4.45,4.45,0,0,1-1.44-1.17,1.41,1.41,0,0,1-.29-1.07,1.43,1.43,0,0,1,1.49-1.12l2.1-.08a6.58,6.58,0,0,1,3.94.7,5.53,5.53,0,0,1,1.74,2,8.28,8.28,0,0,1,1.16,2.86,1,1,0,0,1-1.21,1.12,4.85,4.85,0,0,0-1.95.11c-.35.07-.7.13-1.07.18h0Zm-2.47-4.95a3.18,3.18,0,0,1,1.13,1.17,3.71,3.71,0,0,1,.33,1,2.09,2.09,0,0,0,.15.51,1.27,1.27,0,0,0,1.13.28h0c.32,0,.62-.1.93-.15s.74-.15,1.15-.19c-.15-.32-.33-.64-.5-.93a3.68,3.68,0,0,0-1.1-1.29,5,5,0,0,0-2.78-.39Z" fill="#093f68"></path><path d="M269,181.26a10.29,10.29,0,0,1,1.36-2.66,1.42,1.42,0,0,0,.35-.74,1.56,1.56,0,0,0-.17-.62,4.64,4.64,0,0,1,.18-3.72c-.62-.73-1.88-.32-2.48.44s-.84,1.74-1.45,2.48a10.44,10.44,0,0,1-1.78,1.45C261.11,180.89,266.42,182.42,269,181.26Z" fill="#1FE079"></path><path d="M267,182.64c-1.67,0-3.39-.56-4.05-1.68-.42-.7-.77-2.14,1.49-3.86l.54-.39a5.92,5.92,0,0,0,1.08-.9,5.68,5.68,0,0,0,.62-1.07,7.2,7.2,0,0,1,.82-1.4,3.14,3.14,0,0,1,2.34-1.2h0a2.08,2.08,0,0,1,1.64.74,1,1,0,0,1,.13,1.09,3.64,3.64,0,0,0-.14,2.91,2.48,2.48,0,0,1,.24,1,2.3,2.3,0,0,1-.52,1.25,9.34,9.34,0,0,0-1.25,2.43,1,1,0,0,1-.54.59A6.1,6.1,0,0,1,267,182.64Zm2-1.38h0Zm.39-7a1.05,1.05,0,0,0-.36.3,5.57,5.57,0,0,0-.59,1,7.55,7.55,0,0,1-.87,1.47,7.65,7.65,0,0,1-1.47,1.26,5.92,5.92,0,0,0-.48.35c-.82.62-1.08,1.11-1,1.25.32.54,2.21.95,3.59.55a10.52,10.52,0,0,1,1.33-2.47l.14-.21a1.12,1.12,0,0,0-.05-.13A5.76,5.76,0,0,1,269.42,174.28Z" fill="#093f68"></path><path d="M257.57,177.11a4.4,4.4,0,0,0-.44-1,2.56,2.56,0,0,0-2.33-.63,17,17,0,0,1,2.21,3.94c.43,1.07,2.8,5.88,4.17,3.11C262.19,180.52,258.21,178.63,257.57,177.11Z" fill="#1FE079"></path><path d="M260.17,184.39h-.07c-2.16-.09-3.83-4.13-4-4.59a16.11,16.11,0,0,0-2.08-3.71,1,1,0,0,1,.73-1.59c.69-.05,2.32-.17,3.21,1a3.78,3.78,0,0,1,.45.94,2,2,0,0,0,.1.26h0a6.61,6.61,0,0,0,1.36,1.42c1.36,1.21,3.21,2.87,2.23,4.84A2.13,2.13,0,0,1,260.17,184.39ZM258,179.16a8.41,8.41,0,0,0,2.14,3.2,1,1,0,0,0,.17-.26c.3-.61-.85-1.63-1.77-2.45Z" fill="#093f68"></path><path d="M270.58,185.25a19.73,19.73,0,0,0-5.94-.21,2.05,2.05,0,0,0-1,.3.77.77,0,0,0-.31.91,1.14,1.14,0,0,0,.68.48,21,21,0,0,0,3.13.87,4.22,4.22,0,0,0,2.61-.1,1.67,1.67,0,0,0,.86-2.2" fill="#1FE079"></path><path d="M268.47,188.76a7.54,7.54,0,0,1-1.53-.18,21.71,21.71,0,0,1-3.27-.91,2.1,2.1,0,0,1-1.24-1,1.77,1.77,0,0,1,.63-2.16,3.07,3.07,0,0,1,1.46-.48,20.79,20.79,0,0,1,6.25.23,1,1,0,0,1,.73.58,2.25,2.25,0,0,1,.18,1.77,2.89,2.89,0,0,1-1.5,1.78A3.84,3.84,0,0,1,268.47,188.76ZM265,186a19.36,19.36,0,0,0,2.35.62,3.4,3.4,0,0,0,2,0,.88.88,0,0,0,.43-.48A19,19,0,0,0,265,186Z" fill="#093f68"></path><path d="M274.37,174.8a34.17,34.17,0,0,1-1.84-4.32,1.56,1.56,0,0,1-.12-1,1.07,1.07,0,0,1,1.32-.58,2.53,2.53,0,0,1,1.23,1,5.86,5.86,0,0,1,1.31,3.83,3.53,3.53,0,0,1-2.3,3.14,6.06,6.06,0,0,1-.74.15" fill="#1FE079"></path><path d="M273.22,178a1,1,0,0,1-.15-2,4.38,4.38,0,0,0,.61-.12,1.59,1.59,0,0,0,.4-.18,1,1,0,0,1-.6-.5,35.5,35.5,0,0,1-1.9-4.44,2.52,2.52,0,0,1-.12-1.6A2.07,2.07,0,0,1,274,168a3.54,3.54,0,0,1,1.73,1.35,6.75,6.75,0,0,1,1.51,4.5,4.5,4.5,0,0,1-3,4,6.56,6.56,0,0,1-.88.19Zm.16-8.16c0,.09.07.22.09.27a34.93,34.93,0,0,0,1.71,4,3,3,0,0,0,.09-.51,4.87,4.87,0,0,0-1.11-3.16,2,2,0,0,0-.71-.63Z" fill="#093f68"></path><path d="M276.43,148a8.86,8.86,0,0,1,.1,2.18,6.25,6.25,0,0,1-2,3.17c.36.7,1.38.69,2.09.38a5.25,5.25,0,0,0,2.67-3c.44-1.15,1.22-4.4,0-5.33C277.46,144.06,276.3,146.54,276.43,148Z" fill="#1FE079"></path><path d="M275.63,154.94a2.19,2.19,0,0,1-2-1.12,1,1,0,0,1,.18-1.16,5.46,5.46,0,0,0,1.77-2.63,5.69,5.69,0,0,0-.05-1.41l-.06-.52a4.16,4.16,0,0,1,1.74-3.8,2.38,2.38,0,0,1,2.67.32c2.14,1.64.35,6.44.34,6.49a6.24,6.24,0,0,1-3.21,3.55A3.39,3.39,0,0,1,275.63,154.94Zm2.61-8.91a.16.16,0,0,0-.1,0,2.32,2.32,0,0,0-.71,1.87h0c0,.16,0,.32.05.47a7.41,7.41,0,0,1,0,2,5.14,5.14,0,0,1-1.09,2.36,4.35,4.35,0,0,0,1.89-2.3c.62-1.64.78-3.83.31-4.19A.65.65,0,0,0,278.24,146Z" fill="#093f68"></path><path d="M303.32,207.37c-.56-.24-.85-.84-1.2-1.34s-.95-1-1.52-.75-.71,1-.92,1.64c-.52,1.51-2.1,2.34-3.51,3.1s-2.93,1.81-3.12,3.4c-.06.46.13,1.06.6,1.07a1,1,0,0,0,.52-.18c1.91-1,4.27-.92,6.19-1.94a4.65,4.65,0,0,0,2.48-3.26,3.3,3.3,0,0,0-1.81-3.5" fill="#1FE079"></path><path d="M293.66,215.49h0a1.47,1.47,0,0,1-1.11-.54,2.22,2.22,0,0,1-.46-1.65c.26-2.11,2.21-3.38,3.65-4.16s2.65-1.43,3-2.55c0-.11.07-.22.1-.33a2.59,2.59,0,0,1,1.42-1.92,2.35,2.35,0,0,1,2.69,1.11l.22.33a1.9,1.9,0,0,0,.56.67,1,1,0,0,1,.52,1.32,1,1,0,0,1-.38.45,4.13,4.13,0,0,1,0,1.05,5.63,5.63,0,0,1-3,4,12.66,12.66,0,0,1-3.35,1.06,10.53,10.53,0,0,0-2.83.87A2.11,2.11,0,0,1,293.66,215.49Zm7.16-8.88-.07.21c0,.14-.08.29-.13.42-.63,1.86-2.45,2.84-3.91,3.62-1,.55-2.27,1.34-2.6,2.37a13.91,13.91,0,0,1,2.95-.87,10.9,10.9,0,0,0,2.83-.87,3.68,3.68,0,0,0,2-2.53A2.37,2.37,0,0,0,300.82,206.61Z" fill="#093f68"></path><path d="M184.86,134.53c-.8-.85-2.35-.3-2.89.73a5.53,5.53,0,0,0-.21,3.42,3.41,3.41,0,0,1,1.92-1.05c.86,0,2.06.4,2.35-.41a11,11,0,0,0-1-2.26" fill="#1FE079"></path><path d="M181.76,139.68a1,1,0,0,1-.35-.06,1,1,0,0,1-.64-.79,6.51,6.51,0,0,1,.31-4,3.29,3.29,0,0,1,2.39-1.65,2.42,2.42,0,0,1,2.12.7,1,1,0,0,1,.27.6h0a11.86,11.86,0,0,1,1.12,2.46,1,1,0,0,1,0,.65c-.47,1.31-1.86,1.18-2.61,1.11a3.5,3.5,0,0,0-.63,0,2.62,2.62,0,0,0-1.31.8A1,1,0,0,1,181.76,139.68Zm2.09-4.57h-.11a1.27,1.27,0,0,0-.89.61,2.64,2.64,0,0,0-.25,1.16,2.84,2.84,0,0,1,1-.26c.31,0,.62,0,.92,0l.22,0a11.5,11.5,0,0,0-.62-1.21.89.89,0,0,1-.13-.34A.43.43,0,0,0,183.85,135.11Z" fill="#093f68"></path><path d="M182.12,130c.59-2.15-.84-4.21-3-2.82-1.61,1-2,3.75.23,4.39A2.32,2.32,0,0,0,182.12,130Z" fill="#1FE079"></path><path d="M179.9,132.66a3.12,3.12,0,0,1-3.06-2.61,3.89,3.89,0,0,1,1.73-3.71,2.92,2.92,0,0,1,3.41-.11,3.75,3.75,0,0,1,1.11,4h0a3.24,3.24,0,0,1-1.56,1.95A3.33,3.33,0,0,1,179.9,132.66Zm.55-4.92a1.59,1.59,0,0,0-.8.29,1.87,1.87,0,0,0-.83,1.74,1,1,0,0,0,.8.85,1.25,1.25,0,0,0,.93-.14,1.26,1.26,0,0,0,.61-.73h0a1.88,1.88,0,0,0-.36-1.91A.64.64,0,0,0,180.45,127.74Zm1.67,2.27h0Z" fill="#093f68"></path><path d="M89.6,226.69a1,1,0,0,1-1-1v-7a1,1,0,0,1,2,0v7A1,1,0,0,1,89.6,226.69Z" fill="#dfeaef"></path><path d="M129.17,226.69a1,1,0,0,1-1-1v-2.48H89.6a1,1,0,0,1,0-2h39.57a1,1,0,0,1,1,1v3.48A1,1,0,0,1,129.17,226.69Z" fill="#dfeaef"></path><path d="M307.91,228.87H263.64a1,1,0,0,1-1-1v-5.66a1,1,0,0,1,1-1h44.27a1,1,0,0,1,1,1v5.66A1,1,0,0,1,307.91,228.87Zm-43.27-2h42.27v-3.66H264.64Z" fill="#dfeaef"></path><path d="M305.82,120a1,1,0,0,1-1-1V108.89a1,1,0,1,1,2,0V119A1,1,0,0,1,305.82,120Z" fill="#dfeaef"></path><path d="M310.88,115H300.75a1,1,0,0,1,0-2h10.13a1,1,0,0,1,0,2Z" fill="#dfeaef"></path><circle cx="200" cy="63.63" r="4.02" fill="#093f68"></circle><path d="M200,68.65a5,5,0,1,1,5-5A5,5,0,0,1,200,68.65Zm0-8a3,3,0,1,0,3,3A3,3,0,0,0,200,60.61Z" fill="#093f68"></path></g></svg>